<svg width="418" height="268" viewBox="0 0 418 268" fill="none" xmlns="http://www.w3.org/2000/svg">
<path d="M25.9164 14.366H23.7604L23.4944 7.464H26.1964L25.9164 14.366ZM30.7184 14.366H28.5624L28.2964 7.464H30.9984L30.7184 14.366ZM38.4015 25.076L37.1695 23.144L44.6735 18.888C42.8815 18.524 41.1175 17.88 39.7175 17.18C37.8975 18.188 35.9095 19.056 33.8655 19.952L32.9975 18.02C34.6495 17.348 36.2455 16.732 37.7855 15.976C36.0215 14.828 35.2375 13.456 35.2375 11.944C35.2375 9.9 36.8615 8.304 39.6895 8.304C42.4055 8.304 44.0855 9.592 44.0855 12C44.0855 13.624 43.2455 14.912 41.5375 16.06C43.1335 16.648 45.4015 17.18 47.3055 17.292V10.572H45.5415V8.584H52.4855V10.572H49.5735V26H47.3055V19.588L38.4015 25.076ZM37.5055 12.112C37.5055 13.288 38.2615 14.212 39.5775 15.024C40.9775 14.184 41.8175 13.26 41.8175 12.028C41.8175 10.88 41.1175 10.152 39.7175 10.152C38.4295 10.152 37.5055 10.852 37.5055 12.112ZM56.8538 10.572V26H54.5858V10.572H52.0938V8.584H54.5298C53.6898 4.748 52.4018 2.9 50.4977 2.9C48.9017 2.9 48.2017 3.852 48.2017 5.392C48.2017 6.484 48.5938 7.576 49.1537 8.78H46.9137C46.2697 7.464 45.9337 6.148 45.9337 4.972C45.9337 2.592 47.4737 0.911999 50.1337 0.911999C53.9138 0.911999 55.5658 3.628 56.6298 8.584H59.7378V10.572H56.8538ZM77.6341 24.824L76.0101 26.336C73.0701 23.676 70.9981 21.52 69.5421 19.448C68.6181 18.132 68.2541 17.236 68.2541 16.396C68.2541 15.528 68.7861 14.968 69.7381 14.968C70.5501 14.968 71.3061 15.444 72.0341 16.284C73.5741 15.556 74.2461 14.408 74.2461 12.896C74.2461 12.056 74.0501 11.132 73.7701 10.572H67.0781V8.584H78.9501V10.572H76.0941C76.3741 11.356 76.4861 12.168 76.4861 13.176C76.4861 16.2 74.5541 17.824 71.6701 19.056C73.2101 20.876 75.4221 22.948 77.6341 24.824ZM83.2952 10.572V26H81.0272V10.572H78.5352V8.584H86.1792V10.572H83.2952ZM103.393 10.572H100.509V26H98.2413V21.968C97.2893 22.668 95.8893 23.144 94.0693 23.144C90.7093 23.144 88.5253 21.436 88.5253 18.916C88.5253 17.964 88.8613 16.984 89.7293 16.256C88.2453 15.332 87.1813 13.988 87.1813 12.112C87.1813 9.732 88.7773 8.304 91.3533 8.304C93.8733 8.304 94.9933 9.704 94.9933 11.412C94.9933 12.392 94.6013 13.232 93.7613 14.016L92.0813 13.008C92.5853 12.504 92.8373 11.972 92.8373 11.44C92.8373 10.6 92.3333 10.096 91.3533 10.096C90.1493 10.096 89.3653 10.936 89.3653 12.28C89.3653 13.596 90.1213 14.548 91.5213 15.248C92.1653 15.052 92.8933 14.996 93.6493 14.996C94.1813 14.996 94.7413 15.052 95.1613 15.136L94.9373 17.096C94.5733 17.04 94.2093 17.012 93.7053 17.012C91.7733 17.012 90.7653 17.712 90.7653 19.028C90.7653 20.456 92.1373 21.184 94.0413 21.184C95.7773 21.184 97.2613 20.428 98.2413 19.252V10.572H96.5053V8.584H103.393V10.572ZM98.2758 8.78C96.7358 3.796 96.1758 2.956 94.2718 2.956C93.4878 2.956 92.6198 3.152 91.9478 3.404L91.3318 1.416C92.1158 1.108 93.1798 0.911999 94.1318 0.911999C97.4078 0.911999 98.4158 2.508 100.348 8.78H98.2758ZM106.62 21.156C104.94 21.156 103.792 20.316 103.792 19.028C103.792 17.964 104.548 17.348 105.64 17.348C106.564 17.348 107.264 17.74 108.076 18.636C110.316 17.908 111.828 16.116 111.828 13.372C111.828 11.272 110.876 10.152 109.196 10.152C107.908 10.152 107.18 10.88 107.18 11.86C107.18 13.176 108.356 13.736 110.288 13.876L109.952 15.696C107.012 15.472 105.108 14.184 105.108 11.748C105.108 9.648 106.564 8.304 109.14 8.304C112.136 8.304 114.04 10.264 114.04 13.54C114.04 16.872 112.192 19.196 109.476 20.344C110.96 21.772 112.276 23.368 113.424 24.936L111.492 26.168C109.896 23.928 108.608 22.304 107.516 21.072C107.208 21.128 106.956 21.156 106.62 21.156ZM131.534 8.584V10.572H128.65V26H126.382V21.156C125.402 21.828 124.198 22.304 122.462 22.304C118.85 22.304 116.806 20.232 115.826 15.976C118.71 15.444 119.886 14.66 119.886 13.148C119.886 12.168 119.41 11.272 118.654 10.572H114.902V8.584H131.534ZM118.626 17.404C119.298 19.336 120.362 20.316 122.434 20.316C124.17 20.316 125.43 19.42 126.382 18.384V10.572H121.09C121.79 11.468 122.126 12.448 122.126 13.4C122.126 15.388 121.034 16.62 118.626 17.404ZM135.905 10.572V26H133.637V10.572H131.145V8.584H138.789V10.572H135.905ZM152.643 10.572V26H150.375V19H144.187V20.036C144.187 21.268 143.543 21.772 142.843 21.772C141.415 21.772 139.483 19.644 139.483 18.216C139.483 17.544 139.931 17.012 141.191 17.012H141.919V10.572H138.391V8.584H155.527V10.572H152.643ZM150.375 10.572H144.187V17.012H150.375V10.572ZM168.687 10.572V19.448C168.687 20.428 168.183 21.016 167.343 21.016C165.887 21.016 164.011 18.944 164.011 17.376C164.011 16.536 164.459 15.948 165.719 15.948H166.419V10.572H162.863V8.584H179.019V10.572H176.135V26H173.867V10.572H168.687ZM183.401 10.572V26H181.133V10.572H178.641V8.584H180.993C179.229 6.624 178.473 6.316 177.129 6.316C176.261 6.316 175.365 6.568 174.637 6.904L173.937 4.944C174.777 4.58 175.729 4.356 176.625 4.356C178.389 4.356 179.285 5 180.853 6.624L180.965 6.568C179.397 3.46 178.641 2.844 177.073 2.844C176.429 2.844 175.813 2.984 175.085 3.264L174.441 1.332C175.197 1.052 176.093 0.911999 176.989 0.911999C180.069 0.911999 181.105 2.396 183.177 8.584H186.285V10.572H183.401ZM189.499 21.156C187.819 21.156 186.671 20.316 186.671 19.028C186.671 17.964 187.427 17.348 188.519 17.348C189.443 17.348 190.143 17.74 190.955 18.636C193.195 17.908 194.707 16.116 194.707 13.372C194.707 11.272 193.755 10.152 192.075 10.152C190.787 10.152 190.059 10.88 190.059 11.86C190.059 13.176 191.235 13.736 193.167 13.876L192.831 15.696C189.891 15.472 187.987 14.184 187.987 11.748C187.987 9.648 189.443 8.304 192.019 8.304C195.015 8.304 196.919 10.264 196.919 13.54C196.919 16.872 195.071 19.196 192.355 20.344C193.839 21.772 195.155 23.368 196.303 24.936L194.371 26.168C192.775 23.928 191.487 22.304 190.395 21.072C190.087 21.128 189.835 21.156 189.499 21.156ZM202.435 10.572V26H200.167V10.572H197.675V8.584H205.319V10.572H202.435ZM209.678 10.572V26H207.41V10.572H204.918V8.584H212.562V10.572H209.678ZM212.164 10.572V8.584H231.54V10.572H228.656V26H226.388V15.976C226.276 15.976 226.164 15.976 226.052 15.976C224.148 15.976 222.832 17.152 222.244 20.596L220.004 19.924C220.172 18.72 220.48 17.712 220.928 16.872C220.312 16.312 219.528 15.976 218.52 15.976C216.756 15.976 215.692 17.124 215.692 18.888C215.692 21.016 217.176 22.696 220.62 24.656L219.304 26.392C215.636 24.236 213.424 21.856 213.424 18.664C213.424 15.556 215.44 13.96 218.296 13.96C219.892 13.96 221.124 14.52 222.076 15.388C223.084 14.464 224.4 14.016 226.052 14.016C226.164 14.016 226.276 14.016 226.388 14.016V10.572H212.164ZM235.901 10.572V26H233.633V10.572H231.141V8.584H238.785V10.572H235.901ZM254.161 26.392C251.361 23.648 249.093 20.82 248.085 18.972C247.553 18.02 247.301 17.18 247.301 16.48C247.301 15.5 247.861 14.968 248.813 14.968C249.625 14.968 250.381 15.472 251.109 16.312C252.117 15.612 252.453 14.352 252.453 13.12C252.453 12.084 252.229 11.16 251.977 10.572H246.125V8.584H265.445V10.572H262.561V26H260.293V18.832C259.341 19.056 258.361 19.168 257.325 19.168C255.841 19.168 254.077 18.888 252.509 18.076C251.949 18.496 251.221 18.86 250.381 19.14C251.725 20.96 253.629 22.808 255.869 24.88L254.161 26.392ZM257.297 17.152C258.361 17.152 259.313 17.04 260.293 16.76V10.572H254.273C254.581 11.384 254.721 12.28 254.721 13.4C254.721 14.632 254.441 15.696 253.853 16.592C255.001 17.012 256.037 17.152 257.297 17.152ZM269.807 10.572V26H267.539V10.572H265.047V8.584H267.287C266.839 7.744 266.531 6.848 266.531 5.672C266.531 2.676 268.995 0.911999 272.859 0.911999C278.431 0.911999 282.967 4.216 285.711 8.78H283.415C280.615 4.916 277.031 2.928 273.419 2.928C270.479 2.928 268.799 4.048 268.799 6.064C268.799 7.156 269.219 7.968 269.667 8.584H272.691V10.572H269.807ZM286.545 10.572V26H284.277V19H278.089V20.036C278.089 21.268 277.445 21.772 276.745 21.772C275.317 21.772 273.385 19.644 273.385 18.216C273.385 17.544 273.833 17.012 275.093 17.012H275.821V10.572H272.293V8.584H289.429V10.572H286.545ZM284.277 10.572H278.089V17.012H284.277V10.572ZM293.787 10.572V26H291.519V10.572H289.027V8.584H291.267C290.819 7.744 290.511 6.876 290.511 5.756C290.511 2.76 292.975 0.911999 296.783 0.911999C302.215 0.911999 306.583 4.216 309.243 8.78H306.947C304.259 4.916 300.843 2.928 297.343 2.928C294.459 2.928 292.779 4.048 292.779 6.064C292.779 7.156 293.199 7.968 293.647 8.584H296.671V10.572H293.787ZM309.741 10.572V26H307.473V16.816H303.581C301.229 16.816 299.801 17.544 299.801 19.532C299.801 21.352 300.977 22.836 303.217 24.964L301.621 26.392C298.989 23.844 297.533 21.744 297.533 19.252C297.533 16.228 299.745 14.828 303.189 14.828H307.473V10.572H296.273V8.584H312.625V10.572H309.741ZM315.924 14.366H313.768L313.502 7.464H316.204L315.924 14.366ZM320.726 14.366H318.57L318.304 7.464H321.006L320.726 14.366ZM335.84 10.572V19.448C335.84 20.428 335.336 21.016 334.496 21.016C333.04 21.016 331.164 18.944 331.164 17.376C331.164 16.536 331.612 15.948 332.872 15.948H333.572V10.572H330.016V8.584H346.172V10.572H343.288V26H341.02V10.572H335.84ZM350.553 10.572V26H348.285V10.572H345.793V8.584H348.145C346.381 6.624 345.625 6.316 344.281 6.316C343.413 6.316 342.517 6.568 341.789 6.904L341.089 4.944C341.929 4.58 342.881 4.356 343.777 4.356C345.541 4.356 346.437 5 348.005 6.624L348.117 6.568C346.549 3.46 345.793 2.844 344.225 2.844C343.581 2.844 342.965 2.984 342.237 3.264L341.593 1.332C342.349 1.052 343.245 0.911999 344.141 0.911999C347.221 0.911999 348.257 2.396 350.329 8.584H353.437V10.572H350.553ZM361.075 26.392C358.275 23.648 356.007 20.82 354.999 18.972C354.467 18.02 354.215 17.18 354.215 16.48C354.215 15.5 354.775 14.968 355.727 14.968C356.539 14.968 357.295 15.472 358.023 16.312C359.031 15.612 359.367 14.352 359.367 13.12C359.367 12.084 359.143 11.16 358.891 10.572H353.039V8.584H372.359V10.572H369.475V26H367.207V18.832C366.255 19.056 365.275 19.168 364.239 19.168C362.755 19.168 360.991 18.888 359.423 18.076C358.863 18.496 358.135 18.86 357.295 19.14C358.639 20.96 360.543 22.808 362.783 24.88L361.075 26.392ZM364.211 17.152C365.275 17.152 366.227 17.04 367.207 16.76V10.572H361.187C361.495 11.384 361.635 12.28 361.635 13.4C361.635 14.632 361.355 15.696 360.767 16.592C361.915 17.012 362.951 17.152 364.211 17.152ZM367.229 8.78C365.689 3.796 365.129 2.956 363.225 2.956C362.441 2.956 361.573 3.152 360.901 3.404L360.285 1.416C361.069 1.108 362.133 0.911999 363.085 0.911999C366.361 0.911999 367.369 2.508 369.301 8.78H367.229ZM387.921 10.572H385.037V26H382.797V21.576C381.733 22.36 380.333 22.78 378.709 22.78C375.629 22.78 373.249 21.016 373.249 17.908C373.249 14.576 375.657 13.008 379.045 13.008C380.081 13.008 381.005 13.12 381.789 13.316L381.649 15.332C380.865 15.164 380.081 15.052 379.129 15.052C377.029 15.052 375.517 16.06 375.517 17.964C375.517 19.644 376.609 20.764 378.709 20.764C380.361 20.764 381.817 20.008 382.797 18.832V10.572H371.961V8.584H387.921V10.572ZM392.28 10.572V26H390.012V10.572H387.52V8.584H395.164V10.572H392.28ZM13.468 53.952C13.468 56.696 11.452 58.264 8.70797 58.264C5.37597 58.264 3.13597 56.304 0.979969 50.368L2.96797 49.556C4.47997 53.924 6.07597 56.22 8.51197 56.22C10.164 56.22 11.256 55.296 11.256 53.7C11.256 52.412 10.388 51.404 9.29597 50.62C8.59597 50.816 7.75597 50.956 6.80397 51.04L6.35597 49.052C9.85597 48.604 10.78 47.848 10.78 46.308C10.78 45.076 9.96797 44.292 8.45597 44.292C7.19597 44.292 5.99197 44.684 4.78797 45.412L4.05997 43.452C5.34797 42.724 6.80397 42.304 8.53997 42.304C11.732 42.304 13.02 44.18 13.02 46.336C13.02 47.792 12.488 48.968 11.228 49.78L11.284 49.836C12.18 50.06 13.16 50.144 14.028 50.144C14.896 50.144 15.82 50.06 16.8 49.808V44.572H14.756V42.584H23.912C22.148 40.624 21.392 40.316 20.048 40.316C19.18 40.316 18.284 40.568 17.556 40.904L16.856 38.944C17.696 38.58 18.648 38.356 19.544 38.356C21.308 38.356 22.204 39 23.772 40.624L23.884 40.568C22.316 37.46 21.56 36.844 19.992 36.844C19.348 36.844 18.732 36.984 18.004 37.264L17.36 35.332C18.116 35.052 19.012 34.912 19.908 34.912C22.988 34.912 24.024 36.396 26.096 42.584H29.204V44.572H26.32V60H24.052V44.572H19.068V60H16.8V51.88C16.044 52.076 15.26 52.132 14.476 52.132C14.028 52.132 13.496 52.104 12.964 52.02C13.3 52.608 13.468 53.28 13.468 53.952ZM39.3802 58.824L37.7562 60.336C34.8162 57.676 32.7442 55.52 31.2882 53.448C30.3642 52.132 30.0002 51.236 30.0002 50.396C30.0002 49.528 30.5322 48.968 31.4842 48.968C32.2962 48.968 33.0522 49.444 33.7802 50.284C35.3202 49.556 35.9922 48.408 35.9922 46.896C35.9922 46.056 35.7962 45.132 35.5162 44.572H28.8242V42.584H40.6962V44.572H37.8402C38.1202 45.356 38.2322 46.168 38.2322 47.176C38.2322 50.2 36.3002 51.824 33.4162 53.056C34.9562 54.876 37.1682 56.948 39.3802 58.824ZM62.2715 44.572V60H60.0035V53H53.8155V54.036C53.8155 55.268 53.1715 55.772 52.4715 55.772C51.0435 55.772 49.1115 53.644 49.1115 52.216C49.1115 51.544 49.5595 51.012 50.8195 51.012H51.5475V44.572H48.0195V42.584H65.1555V44.572H62.2715ZM60.0035 44.572H53.8155V51.012H60.0035V44.572ZM69.5139 44.572V60H67.2459V44.572H64.7539V42.584H72.3979V44.572H69.5139ZM72 42.584H87.932V44.572H85.048V60H82.78V51.656H77.712V53.168C77.712 54.204 77.152 54.736 76.284 54.736C74.912 54.736 73.036 52.664 73.036 51.096C73.036 50.256 73.484 49.668 74.744 49.668H82.78V44.572H72V42.584ZM103.491 44.572H100.607V60H98.3673V55.576C97.3033 56.36 95.9033 56.78 94.2793 56.78C91.1993 56.78 88.8193 55.016 88.8193 51.908C88.8193 48.576 91.2272 47.008 94.6153 47.008C95.6513 47.008 96.5753 47.12 97.3593 47.316L97.2193 49.332C96.4353 49.164 95.6513 49.052 94.6993 49.052C92.5993 49.052 91.0873 50.06 91.0873 51.964C91.0873 53.644 92.1793 54.764 94.2793 54.764C95.9313 54.764 97.3873 54.008 98.3673 52.832V44.572H87.5312V42.584H103.491V44.572ZM107.85 44.572V60H105.582V44.572H103.09V42.584H105.526C104.686 38.748 103.398 36.9 101.494 36.9C99.8978 36.9 99.1978 37.852 99.1978 39.392C99.1978 40.484 99.5898 41.576 100.15 42.78H97.9098C97.2658 41.464 96.9298 40.148 96.9298 38.972C96.9298 36.592 98.4698 34.912 101.13 34.912C104.91 34.912 106.562 37.628 107.626 42.584H110.734V44.572H107.85ZM126.968 42.584V44.572H124.084V60H121.816V55.156C120.836 55.828 119.632 56.304 117.896 56.304C114.284 56.304 112.24 54.232 111.26 49.976C114.144 49.444 115.32 48.66 115.32 47.148C115.32 46.168 114.844 45.272 114.088 44.572H110.336V42.584H126.968ZM114.06 51.404C114.732 53.336 115.796 54.316 117.868 54.316C119.604 54.316 120.864 53.42 121.816 52.384V44.572H116.524C117.224 45.468 117.56 46.448 117.56 47.4C117.56 49.388 116.468 50.62 114.06 51.404ZM142.352 60.392C139.552 57.648 137.284 54.82 136.276 52.972C135.744 52.02 135.492 51.18 135.492 50.48C135.492 49.5 136.052 48.968 137.004 48.968C137.816 48.968 138.572 49.472 139.3 50.312C140.308 49.612 140.644 48.352 140.644 47.12C140.644 46.084 140.42 45.16 140.168 44.572H134.316V42.584H148.204V44.572H142.464C142.772 45.384 142.912 46.28 142.912 47.4C142.912 48.688 142.604 49.78 141.96 50.704C143.136 51.124 144.256 51.292 145.46 51.292C146.412 51.292 147.252 51.208 148.26 51.04L148.316 53.028C147.364 53.252 146.552 53.308 145.46 53.308C144.004 53.308 142.156 52.972 140.616 52.132C140.056 52.524 139.356 52.888 138.572 53.14C139.916 54.96 141.82 56.808 144.06 58.88L142.352 60.392ZM161.159 44.572H158.275V60H156.035V55.576C154.971 56.36 153.571 56.78 151.947 56.78C148.867 56.78 146.487 55.016 146.487 51.908C146.487 48.576 148.895 47.008 152.283 47.008C153.319 47.008 154.243 47.12 155.027 47.316L154.887 49.332C154.103 49.164 153.319 49.052 152.367 49.052C150.267 49.052 148.755 50.06 148.755 51.964C148.755 53.644 149.847 54.764 151.947 54.764C153.599 54.764 155.055 54.008 156.035 52.832V44.572H145.199V42.584H161.159V44.572ZM165.518 44.572V60H163.25V44.572H160.758V42.584H168.402V44.572H165.518ZM183.404 44.572V60H181.136V55.324C180.1 56.108 178.588 56.64 176.74 56.64C173.184 56.64 170.804 54.848 169.628 50.788C174.332 50.116 175.62 48.66 175.62 46.588C175.62 45.076 174.864 44.124 173.548 44.124C172.512 44.124 171.868 44.712 171.868 45.636C171.868 46.504 172.568 47.064 173.688 47.484L172.736 49.052C170.552 48.38 169.656 47.12 169.656 45.58C169.656 43.62 171.028 42.304 173.492 42.304C176.292 42.304 177.888 44.012 177.888 46.672C177.888 49.416 176.208 51.292 172.652 52.244C173.576 53.98 174.808 54.652 176.6 54.652C178.42 54.652 180.016 53.84 181.136 52.58V44.572H179.036V42.584H186.288V44.572H183.404ZM180.791 42.78C179.895 41.772 179.111 40.26 179.111 38.72C179.111 36.144 180.875 34.912 183.311 34.912C184.487 34.912 185.467 35.164 186.195 35.584L185.607 37.292C184.935 37.04 184.347 36.844 183.591 36.844C182.135 36.844 181.351 37.684 181.351 39.056C181.351 40.316 181.995 41.52 183.087 42.78H180.791ZM198.385 44.572V60H196.117V44.572H193.625V42.584H195.865C195.417 41.744 195.109 40.848 195.109 39.644C195.109 36.564 197.881 34.912 201.913 34.912C208.913 34.912 214.457 38.44 217.621 42.78H215.129C211.881 39.056 207.261 36.928 202.473 36.928C199.337 36.928 197.377 37.964 197.377 40.064C197.377 41.156 197.741 41.94 198.217 42.584H201.269V44.572H198.385ZM208.907 60.392C206.107 57.648 203.839 54.82 202.831 52.972C202.299 52.02 202.047 51.18 202.047 50.48C202.047 49.5 202.607 48.968 203.559 48.968C204.371 48.968 205.127 49.472 205.855 50.312C206.863 49.612 207.199 48.352 207.199 47.12C207.199 46.084 206.975 45.16 206.723 44.572H200.871V42.584H220.191V44.572H217.307V60H215.039V52.832C214.087 53.056 213.107 53.168 212.071 53.168C210.587 53.168 208.823 52.888 207.255 52.076C206.695 52.496 205.967 52.86 205.127 53.14C206.471 54.96 208.375 56.808 210.615 58.88L208.907 60.392ZM212.043 51.152C213.107 51.152 214.059 51.04 215.039 50.76V44.572H209.019C209.327 45.384 209.467 46.28 209.467 47.4C209.467 48.632 209.187 49.696 208.599 50.592C209.747 51.012 210.783 51.152 212.043 51.152ZM224.553 44.572V60H222.285V44.572H219.793V42.584H222.145C221.641 41.716 221.277 40.848 221.277 39.644C221.277 36.564 224.273 34.912 228.949 34.912C237.237 34.912 243.565 38.412 247.513 42.78H244.993C240.849 39.112 235.333 36.928 229.509 36.928C225.729 36.928 223.545 37.964 223.545 40.148C223.545 41.072 223.909 41.884 224.413 42.584H227.437V44.572H224.553ZM237.371 64.424C234.039 64.648 232.079 63.22 231.939 61.036C231.883 60.308 232.023 59.692 232.359 59.132C229.923 58.852 228.131 57.284 228.131 54.96C228.131 52.832 229.447 51.348 231.855 51.348C233.703 51.348 235.131 52.44 235.131 54.26C235.131 54.904 234.991 55.352 234.823 55.8L232.947 55.352C233.059 54.988 233.115 54.652 233.115 54.344C233.115 53.7 232.723 53.084 231.855 53.084C230.819 53.084 230.175 53.7 230.175 54.96C230.175 56.696 231.911 57.592 233.871 57.48C234.487 57.172 235.215 56.976 235.943 56.948C236.307 56.92 236.755 56.92 237.035 56.948L237.063 58.824C236.839 58.824 236.559 58.824 236.363 58.852C234.879 58.964 234.039 59.664 234.123 60.756C234.207 62.044 235.467 62.604 237.063 62.492C239.863 62.324 242.019 60.504 243.671 57.872C243.391 57.9 243.083 57.9 242.747 57.9C239.443 57.9 236.027 56.332 236.027 52.412C236.027 48.94 238.407 47.26 242.915 47.26H244.455V44.572H227.039V42.584H249.691V44.572H246.723V49.22H243.251C239.975 49.22 238.295 50.256 238.295 52.524C238.295 54.68 240.031 55.856 242.719 55.856C243.055 55.856 243.419 55.828 243.811 55.772C243.699 55.324 243.615 54.932 243.615 54.54C243.615 53.448 244.315 52.776 245.519 52.776C246.891 52.776 247.899 53.84 247.899 54.988C247.899 55.94 247.311 56.696 246.247 57.228C246.975 59.272 247.731 61.064 248.963 63.556L246.835 64.508C246.107 62.856 245.491 61.176 244.987 59.636C243.391 62.016 240.927 64.172 237.371 64.424ZM279.069 44.572H269.969V49.976C270.753 49.276 271.873 48.8 273.245 48.8C275.905 48.8 277.473 50.508 277.473 53.28C277.473 55.24 276.773 57.004 275.121 58.824L273.161 57.592C274.393 56.332 275.233 54.96 275.233 53.252C275.233 51.628 274.421 50.76 272.993 50.76C271.817 50.76 270.669 51.572 269.969 52.832V60H267.701V55.24C266.693 56.136 265.349 56.696 263.669 56.696C260.813 56.696 258.433 55.072 258.433 51.852C258.433 48.8 260.561 47.008 264.201 47.008C265.153 47.008 266.021 47.12 266.721 47.288L266.525 49.332C265.881 49.164 265.097 49.052 264.257 49.052C261.961 49.052 260.701 50.06 260.701 51.936C260.701 53.784 261.989 54.68 263.669 54.68C265.377 54.68 266.861 53.728 267.701 52.524V44.572H257.145V42.584H279.069V44.572ZM283.397 44.572V60H281.129V44.572H278.637V42.584H281.101C279.589 37.768 279.029 36.956 277.153 36.956C276.369 36.956 275.501 37.152 274.829 37.404L274.213 35.416C274.997 35.108 276.061 34.912 277.013 34.912C280.289 34.912 281.297 36.508 283.173 42.584H286.281V44.572H283.397ZM301.209 53.784C300.117 53.784 298.969 54.064 298.045 54.428C296.449 53.448 295.021 51.964 295.021 50.144C295.021 48.072 296.365 46.98 299.193 46.98H302.665V44.572H293.621V42.584H307.761V44.572H304.933V48.968H299.389C297.877 48.968 297.261 49.472 297.261 50.368C297.261 51.124 297.793 51.768 298.465 52.272C299.389 51.936 300.369 51.768 301.545 51.768C304.541 51.768 306.137 53.336 306.137 55.688C306.137 58.572 303.841 59.916 300.257 60C301.237 61.036 302.329 62.044 303.477 63.052L301.517 64.508C300.117 63.024 298.885 61.484 297.793 59.888C295.973 59.664 294.797 58.936 294.797 57.704C294.797 56.836 295.385 56.304 296.309 56.304C297.205 56.304 297.905 56.808 298.717 58.068C299.081 58.096 299.417 58.096 299.641 58.096C302.021 58.096 303.869 57.592 303.869 55.688C303.869 54.484 303.113 53.784 301.209 53.784ZM315.411 60.392C312.611 57.648 310.343 54.82 309.335 52.972C308.803 52.02 308.551 51.18 308.551 50.48C308.551 49.5 309.111 48.968 310.063 48.968C310.875 48.968 311.631 49.472 312.359 50.312C313.367 49.612 313.703 48.352 313.703 47.12C313.703 46.084 313.479 45.16 313.227 44.572H307.375V42.584H326.695V44.572H323.811V60H321.543V52.832C320.591 53.056 319.611 53.168 318.575 53.168C317.091 53.168 315.327 52.888 313.759 52.076C313.199 52.496 312.471 52.86 311.631 53.14C312.975 54.96 314.879 56.808 317.119 58.88L315.411 60.392ZM318.547 51.152C319.611 51.152 320.563 51.04 321.543 50.76V44.572H315.523C315.831 45.384 315.971 46.28 315.971 47.4C315.971 48.632 315.691 49.696 315.103 50.592C316.251 51.012 317.287 51.152 318.547 51.152ZM335.295 58.516L340.503 55.436C337.787 55.1 336.247 53.252 336.247 49.92V44.572H334.035V42.584H350.359V44.572H347.447V60H345.179V54.4L336.611 60.364L335.295 58.516ZM345.179 44.572H338.515V50.004C338.515 52.412 339.551 53.504 341.427 53.504C342.855 53.504 344.227 52.72 345.179 51.712V44.572ZM371.901 44.572H362.801V49.976C363.585 49.276 364.705 48.8 366.077 48.8C368.737 48.8 370.305 50.508 370.305 53.28C370.305 55.24 369.605 57.004 367.953 58.824L365.993 57.592C367.225 56.332 368.065 54.96 368.065 53.252C368.065 51.628 367.253 50.76 365.825 50.76C364.649 50.76 363.501 51.572 362.801 52.832V60H360.533V55.24C359.525 56.136 358.181 56.696 356.501 56.696C353.645 56.696 351.265 55.072 351.265 51.852C351.265 48.8 353.393 47.008 357.033 47.008C357.985 47.008 358.853 47.12 359.553 47.288L359.357 49.332C358.713 49.164 357.929 49.052 357.089 49.052C354.793 49.052 353.533 50.06 353.533 51.936C353.533 53.784 354.821 54.68 356.501 54.68C358.209 54.68 359.693 53.728 360.533 52.524V44.572H349.977V42.584H371.901V44.572ZM376.229 44.572V60H373.961V44.572H371.469V42.584H379.113V44.572H376.229ZM389.271 58.824L387.647 60.336C384.707 57.676 382.635 55.52 381.179 53.448C380.255 52.132 379.891 51.236 379.891 50.396C379.891 49.528 380.423 48.968 381.375 48.968C382.187 48.968 382.943 49.444 383.671 50.284C385.211 49.556 385.883 48.408 385.883 46.896C385.883 46.056 385.687 45.132 385.407 44.572H378.715V42.584H390.587V44.572H387.731C388.011 45.356 388.123 46.168 388.123 47.176C388.123 50.2 386.191 51.824 383.307 53.056C384.847 54.876 387.059 56.948 389.271 58.824ZM405.946 60.392C403.146 57.648 400.878 54.82 399.87 52.972C399.338 52.02 399.086 51.18 399.086 50.48C399.086 49.5 399.646 48.968 400.598 48.968C401.41 48.968 402.166 49.472 402.894 50.312C403.902 49.612 404.238 48.352 404.238 47.12C404.238 46.084 404.014 45.16 403.762 44.572H397.91V42.584H417.23V44.572H414.346V60H412.078V52.832C411.126 53.056 410.146 53.168 409.11 53.168C407.626 53.168 405.862 52.888 404.294 52.076C403.734 52.496 403.006 52.86 402.166 53.14C403.51 54.96 405.414 56.808 407.654 58.88L405.946 60.392ZM409.082 51.152C410.146 51.152 411.098 51.04 412.078 50.76V44.572H406.058C406.366 45.384 406.506 46.28 406.506 47.4C406.506 48.632 406.226 49.696 405.638 50.592C406.786 51.012 407.822 51.152 409.082 51.152ZM412.1 42.78C410.56 37.796 410 36.956 408.096 36.956C407.312 36.956 406.444 37.152 405.772 37.404L405.156 35.416C405.94 35.108 407.004 34.912 407.956 34.912C411.232 34.912 412.24 36.508 414.172 42.78H412.1ZM81.8758 78.572V94H79.6078V83.64H75.7718C75.0158 83.64 74.5118 83.612 74.1758 83.556C75.5198 84.648 76.4158 86.244 76.4158 87.896C76.4158 90.5 74.5118 91.76 72.2718 91.76C69.3038 91.76 66.8118 89.436 64.4598 82.772L66.4478 82.072C68.1558 87.084 69.9758 89.716 72.1598 89.716C73.3638 89.716 74.2038 89.128 74.2038 87.644C74.2038 85.992 72.9158 84.508 71.2358 83.444L72.0478 81.652H79.6078V78.572H63.5918V76.584H84.7598V78.572H81.8758ZM89.133 78.572V94H86.865V78.572H84.373V76.584H86.837C85.325 71.768 84.765 70.956 82.889 70.956C82.105 70.956 81.237 71.152 80.565 71.404L79.949 69.416C80.733 69.108 81.797 68.912 82.749 68.912C86.025 68.912 87.033 70.508 88.909 76.584H92.017V78.572H89.133ZM100.439 87.784C99.3191 87.784 98.1431 88.036 97.2471 88.428C95.6791 87.42 94.1951 86.104 94.1951 84.256C94.1951 82.1 95.5951 81.008 98.5351 81.008H101.839V78.572H91.3391V76.584H106.879V78.572H104.107V82.968H98.5631C97.0511 82.968 96.4351 83.472 96.4351 84.424C96.4351 85.124 96.9671 85.824 97.6111 86.272C98.5071 85.964 99.5711 85.768 100.663 85.768C103.687 85.768 105.311 87.28 105.311 89.688C105.311 92.152 103.631 94 99.8511 94C96.6311 94 94.1671 92.628 92.1791 90.668L93.5791 88.82C95.5391 90.892 97.5271 91.928 99.7951 91.928C101.979 91.928 103.043 91.144 103.043 89.772C103.043 88.54 102.315 87.784 100.439 87.784ZM97.5551 97.752C97.5551 96.856 98.2551 96.128 99.0951 96.128C99.9631 96.128 100.635 96.856 100.635 97.752C100.635 98.676 99.9631 99.376 99.0951 99.376C98.2551 99.376 97.5551 98.676 97.5551 97.752ZM106.604 76.584H122.536V78.572H119.652V94H117.384V85.656H112.316V87.168C112.316 88.204 111.756 88.736 110.888 88.736C109.516 88.736 107.64 86.664 107.64 85.096C107.64 84.256 108.088 83.668 109.348 83.668H117.384V78.572H106.604V76.584ZM117.403 76.78C115.863 71.796 115.303 70.956 113.399 70.956C112.615 70.956 111.747 71.152 111.075 71.404L110.459 69.416C111.243 69.108 112.307 68.912 113.259 68.912C116.535 68.912 117.543 70.508 119.475 76.78H117.403ZM151.797 78.572H142.697V83.976C143.481 83.276 144.601 82.8 145.973 82.8C148.633 82.8 150.201 84.508 150.201 87.28C150.201 89.24 149.501 91.004 147.849 92.824L145.889 91.592C147.121 90.332 147.961 88.96 147.961 87.252C147.961 85.628 147.149 84.76 145.721 84.76C144.545 84.76 143.397 85.572 142.697 86.832V94H140.429V89.24C139.421 90.136 138.077 90.696 136.397 90.696C133.541 90.696 131.161 89.072 131.161 85.852C131.161 82.8 133.289 81.008 136.929 81.008C137.881 81.008 138.749 81.12 139.449 81.288L139.253 83.332C138.609 83.164 137.825 83.052 136.985 83.052C134.689 83.052 133.429 84.06 133.429 85.936C133.429 87.784 134.717 88.68 136.397 88.68C138.105 88.68 139.589 87.728 140.429 86.524V78.572H129.873V76.584H151.797V78.572ZM140.454 76.78C138.914 71.796 138.354 70.956 136.45 70.956C135.666 70.956 134.798 71.152 134.126 71.404L133.51 69.416C134.294 69.108 135.358 68.912 136.31 68.912C139.586 68.912 140.594 70.508 142.526 76.78H140.454ZM163.864 78.572V94H161.596V78.572H159.104V76.584H161.344C160.896 75.744 160.588 74.848 160.588 73.644C160.588 70.564 163.36 68.912 167.392 68.912C174.392 68.912 179.936 72.44 183.1 76.78H180.608C177.36 73.056 172.74 70.928 167.952 70.928C164.816 70.928 162.856 71.964 162.856 74.064C162.856 75.156 163.22 75.94 163.696 76.584H166.748V78.572H163.864ZM166.35 78.572V76.584H185.726V78.572H182.842V94H180.574V83.976C180.462 83.976 180.35 83.976 180.238 83.976C178.334 83.976 177.018 85.152 176.43 88.596L174.19 87.924C174.358 86.72 174.666 85.712 175.114 84.872C174.498 84.312 173.714 83.976 172.706 83.976C170.942 83.976 169.878 85.124 169.878 86.888C169.878 89.016 171.362 90.696 174.806 92.656L173.49 94.392C169.822 92.236 167.61 89.856 167.61 86.664C167.61 83.556 169.626 81.96 172.482 81.96C174.078 81.96 175.31 82.52 176.262 83.388C177.27 82.464 178.586 82.016 180.238 82.016C180.35 82.016 180.462 82.016 180.574 82.016V78.572H166.35ZM201.23 78.572H198.598V83.08C198.598 86.076 197.506 87.28 194.986 88.008L193.922 86.076C195.798 85.516 196.33 84.788 196.33 82.744V78.572H189.806V84.228C189.806 87 190.198 87.504 192.858 88.876L195.042 89.996C197.87 91.452 198.654 92.376 198.654 93.944C198.654 94.896 198.29 95.82 197.674 96.632L195.49 95.708C195.994 95.148 196.274 94.588 196.274 93.972C196.274 93.076 195.854 92.712 193.866 91.676L191.486 90.444C188.238 88.764 187.538 87.784 187.538 84.648V78.572H185.326V76.584H201.23V78.572ZM209.801 92.516L215.009 89.436C212.293 89.1 210.753 87.252 210.753 83.92V78.572H208.541V76.584H224.865V78.572H221.953V94H219.685V88.4L211.117 94.364L209.801 92.516ZM219.685 78.572H213.021V84.004C213.021 86.412 214.057 87.504 215.933 87.504C217.361 87.504 218.733 86.72 219.685 85.712V78.572ZM241.114 76.584V78.572H238.23V94H235.962V89.156C234.982 89.828 233.778 90.304 232.042 90.304C228.43 90.304 226.386 88.232 225.406 83.976C228.29 83.444 229.466 82.66 229.466 81.148C229.466 80.168 228.99 79.272 228.234 78.572H224.482V76.584H241.114ZM228.206 85.404C228.878 87.336 229.942 88.316 232.014 88.316C233.75 88.316 235.01 87.42 235.962 86.384V78.572H230.67C231.37 79.468 231.706 80.448 231.706 81.4C231.706 83.388 230.614 84.62 228.206 85.404ZM245.485 78.572V94H243.217V78.572H240.725V76.584H248.369V78.572H245.485ZM256.007 94.392C253.207 91.648 250.939 88.82 249.931 86.972C249.399 86.02 249.147 85.18 249.147 84.48C249.147 83.5 249.707 82.968 250.659 82.968C251.471 82.968 252.227 83.472 252.955 84.312C253.963 83.612 254.299 82.352 254.299 81.12C254.299 80.084 254.075 79.16 253.823 78.572H247.971V76.584H267.291V78.572H264.407V94H262.139V86.832C261.187 87.056 260.207 87.168 259.171 87.168C257.687 87.168 255.923 86.888 254.355 86.076C253.795 86.496 253.067 86.86 252.227 87.14C253.571 88.96 255.475 90.808 257.715 92.88L256.007 94.392ZM259.143 85.152C260.207 85.152 261.159 85.04 262.139 84.76V78.572H256.119C256.427 79.384 256.567 80.28 256.567 81.4C256.567 82.632 256.287 83.696 255.699 84.592C256.847 85.012 257.883 85.152 259.143 85.152ZM277.449 92.824L275.825 94.336C272.885 91.676 270.813 89.52 269.357 87.448C268.433 86.132 268.069 85.236 268.069 84.396C268.069 83.528 268.601 82.968 269.553 82.968C270.365 82.968 271.121 83.444 271.849 84.284C273.389 83.556 274.061 82.408 274.061 80.896C274.061 80.056 273.865 79.132 273.585 78.572H266.893V76.584H278.765V78.572H275.909C276.189 79.356 276.301 80.168 276.301 81.176C276.301 84.2 274.369 85.824 271.485 87.056C273.025 88.876 275.237 90.948 277.449 92.824ZM291.818 78.572V94H289.55V84.816H285.658C283.306 84.816 281.878 85.544 281.878 87.532C281.878 89.352 283.054 90.836 285.294 92.964L283.698 94.392C281.066 91.844 279.61 89.744 279.61 87.252C279.61 84.228 281.822 82.828 285.266 82.828H289.55V78.572H278.35V76.584H294.702V78.572H291.818ZM311.381 92.208C312.697 91.648 313.397 90.808 313.397 89.912C313.397 88.68 312.473 87.784 310.205 87.784C307.629 87.784 306.229 88.932 306.229 90.808C306.229 93.048 308.637 94.42 312.781 96.072L311.661 97.976C307.293 96.212 303.989 94.252 303.989 90.724C303.989 89.156 304.605 87.952 305.641 87.14C304.633 86.244 303.989 85.292 303.989 84.088C303.989 82.072 305.389 80.98 308.301 80.98H312.165V78.572H302.057V76.584H317.317V78.572H314.433V82.968H308.609C306.957 82.968 306.229 83.444 306.229 84.452C306.229 85.152 306.761 85.852 307.321 86.244C308.189 85.936 309.197 85.796 310.261 85.796C314.069 85.796 315.609 87.7 315.609 89.94C315.609 91.508 314.937 92.796 312.977 93.832L311.381 92.208ZM312.2 76.78C310.324 74.652 309.568 74.316 308.168 74.316C307.3 74.316 306.404 74.568 305.676 74.904L304.976 72.944C305.816 72.58 306.768 72.356 307.664 72.356C309.428 72.356 310.324 73 311.892 74.624L312.004 74.568C310.436 71.46 309.68 70.844 308.112 70.844C307.468 70.844 306.852 70.984 306.124 71.264L305.48 69.332C306.236 69.052 307.132 68.912 308.028 68.912C311.108 68.912 312.144 70.396 314.272 76.78H312.2ZM346.594 78.572H337.494V83.976C338.278 83.276 339.398 82.8 340.77 82.8C343.43 82.8 344.998 84.508 344.998 87.28C344.998 89.24 344.298 91.004 342.646 92.824L340.686 91.592C341.918 90.332 342.758 88.96 342.758 87.252C342.758 85.628 341.946 84.76 340.518 84.76C339.342 84.76 338.194 85.572 337.494 86.832V94H335.226V89.24C334.218 90.136 332.874 90.696 331.194 90.696C328.338 90.696 325.958 89.072 325.958 85.852C325.958 82.8 328.086 81.008 331.726 81.008C332.678 81.008 333.546 81.12 334.246 81.288L334.05 83.332C333.406 83.164 332.622 83.052 331.782 83.052C329.486 83.052 328.226 84.06 328.226 85.936C328.226 87.784 329.514 88.68 331.194 88.68C332.902 88.68 334.386 87.728 335.226 86.524V78.572H324.67V76.584H346.594V78.572ZM350.922 78.572V94H348.654V78.572H346.162V76.584H348.458C346.022 72.804 343.334 70.928 340.282 70.928C337.846 70.928 336.39 72.076 336.39 73.924C336.39 75.156 336.894 76.052 337.37 76.78H335.018C334.486 75.8 334.122 74.82 334.122 73.616C334.122 70.788 336.334 68.912 339.862 68.912C344.65 68.912 348.15 71.768 350.81 76.584H353.806V78.572H350.922ZM34.4953 121.952C34.4953 124.696 32.4793 126.264 29.7353 126.264C26.4033 126.264 24.1633 124.304 22.0073 118.368L23.9953 117.556C25.5073 121.924 27.1033 124.22 29.5393 124.22C31.1913 124.22 32.2833 123.296 32.2833 121.7C32.2833 120.412 31.4153 119.404 30.3233 118.62C29.6233 118.816 28.7833 118.956 27.8313 119.04L27.3833 117.052C30.8833 116.604 31.8073 115.848 31.8073 114.308C31.8073 113.076 30.9953 112.292 29.4833 112.292C28.2233 112.292 27.0193 112.684 25.8153 113.412L25.0873 111.452C26.3753 110.724 27.8313 110.304 29.5673 110.304C32.7593 110.304 34.0473 112.18 34.0473 114.336C34.0473 115.792 33.5153 116.968 32.2553 117.78L32.3113 117.836C33.2073 118.06 34.1873 118.144 35.0553 118.144C35.9233 118.144 36.8473 118.06 37.8273 117.808V112.572H35.7833V110.584H50.2313V112.572H47.3473V128H45.0793V112.572H40.0953V128H37.8273V119.88C37.0713 120.076 36.2873 120.132 35.5033 120.132C35.0553 120.132 34.5233 120.104 33.9913 120.02C34.3273 120.608 34.4953 121.28 34.4953 121.952ZM68.1082 112.572V128H65.8402V117.64H62.0042C61.2482 117.64 60.7442 117.612 60.4082 117.556C61.7522 118.648 62.6482 120.244 62.6482 121.896C62.6482 124.5 60.7442 125.76 58.5042 125.76C55.5362 125.76 53.0442 123.436 50.6922 116.772L52.6802 116.072C54.3882 121.084 56.2082 123.716 58.3922 123.716C59.5962 123.716 60.4362 123.128 60.4362 121.644C60.4362 119.992 59.1482 118.508 57.4682 117.444L58.2802 115.652H65.8402V112.572H49.8242V110.584H70.9922V112.572H68.1082ZM100.268 112.572H91.1678V117.976C91.9518 117.276 93.0718 116.8 94.4438 116.8C97.1038 116.8 98.6718 118.508 98.6718 121.28C98.6718 123.24 97.9718 125.004 96.3198 126.824L94.3598 125.592C95.5918 124.332 96.4318 122.96 96.4318 121.252C96.4318 119.628 95.6198 118.76 94.1918 118.76C93.0158 118.76 91.8678 119.572 91.1678 120.832V128H88.8998V123.24C87.8918 124.136 86.5478 124.696 84.8678 124.696C82.0118 124.696 79.6318 123.072 79.6318 119.852C79.6318 116.8 81.7598 115.008 85.3998 115.008C86.3518 115.008 87.2198 115.12 87.9198 115.288L87.7238 117.332C87.0798 117.164 86.2958 117.052 85.4558 117.052C83.1598 117.052 81.8998 118.06 81.8998 119.936C81.8998 121.784 83.1878 122.68 84.8678 122.68C86.5757 122.68 88.0598 121.728 88.8998 120.524V112.572H78.3438V110.584H100.268V112.572ZM104.596 112.572V128H102.328V112.572H99.8359V110.584H107.48V112.572H104.596ZM122.856 128.392C120.056 125.648 117.788 122.82 116.78 120.972C116.248 120.02 115.996 119.18 115.996 118.48C115.996 117.5 116.556 116.968 117.508 116.968C118.32 116.968 119.076 117.472 119.804 118.312C120.812 117.612 121.148 116.352 121.148 115.12C121.148 114.084 120.924 113.16 120.672 112.572H114.82V110.584H134.14V112.572H131.256V128H128.988V120.832C128.036 121.056 127.056 121.168 126.02 121.168C124.536 121.168 122.772 120.888 121.204 120.076C120.644 120.496 119.916 120.86 119.076 121.14C120.42 122.96 122.324 124.808 124.564 126.88L122.856 128.392ZM125.992 119.152C127.056 119.152 128.008 119.04 128.988 118.76V112.572H122.968C123.276 113.384 123.416 114.28 123.416 115.4C123.416 116.632 123.136 117.696 122.548 118.592C123.696 119.012 124.732 119.152 125.992 119.152ZM129.206 135.504C125.93 135.504 123.438 133.908 120.974 131.08L122.626 129.596C124.838 132.312 126.714 133.488 129.122 133.488C131.11 133.488 132.09 132.732 132.09 131.416C132.09 130.352 131.474 129.596 130.158 129.596C129.094 129.596 128.198 130.072 127.33 130.884L126.07 129.344C127.134 128.28 128.394 127.692 130.186 127.692C132.762 127.692 134.19 129.344 134.19 131.612C134.19 134.048 132.426 135.504 129.206 135.504ZM138.502 112.572V128H136.234V112.572H133.742V110.584H135.982C135.534 109.744 135.226 108.848 135.226 107.644C135.226 104.564 137.998 102.912 142.03 102.912C149.03 102.912 154.574 106.44 157.738 110.78H155.246C151.998 107.056 147.378 104.928 142.59 104.928C139.454 104.928 137.494 105.964 137.494 108.064C137.494 109.156 137.858 109.94 138.334 110.584H141.386V112.572H138.502ZM144.6 123.156C142.92 123.156 141.772 122.316 141.772 121.028C141.772 119.964 142.528 119.348 143.62 119.348C144.544 119.348 145.244 119.74 146.056 120.636C148.296 119.908 149.808 118.116 149.808 115.372C149.808 113.272 148.856 112.152 147.176 112.152C145.888 112.152 145.16 112.88 145.16 113.86C145.16 115.176 146.336 115.736 148.268 115.876L147.932 117.696C144.992 117.472 143.088 116.184 143.088 113.748C143.088 111.648 144.544 110.304 147.12 110.304C150.116 110.304 152.02 112.264 152.02 115.54C152.02 118.872 150.172 121.196 147.456 122.344C148.94 123.772 150.256 125.368 151.404 126.936L149.472 128.168C147.876 125.928 146.588 124.304 145.496 123.072C145.188 123.128 144.936 123.156 144.6 123.156ZM157.536 112.572V128H155.268V112.572H152.776V110.584H160.42V112.572H157.536ZM164.78 112.572V128H162.512V112.572H160.02V110.584H162.26C161.812 109.744 161.504 108.848 161.504 107.644C161.504 104.564 164.416 102.912 168.672 102.912C176.176 102.912 181.776 106.384 185.472 110.78H182.98C179.2 107.084 174.44 104.928 169.232 104.928C165.872 104.928 163.772 105.964 163.772 108.064C163.772 109.156 164.136 109.94 164.612 110.584H167.664V112.572H164.78ZM184.85 112.572V128H182.582V119.068C181.574 119.488 180.426 119.74 178.718 119.74C177.122 119.74 175.554 119.404 174.21 118.788C171.83 120.104 170.99 120.804 170.99 122.484C170.99 124.192 172.25 125.116 174.322 125.116C174.714 125.116 175.022 125.088 175.302 125.004C175.19 124.696 175.134 124.332 175.134 123.968C175.134 122.904 175.862 122.288 176.926 122.288C178.382 122.288 179.278 123.408 179.278 124.472C179.278 125.256 178.69 125.956 177.794 126.376C178.298 127.412 178.83 128.224 179.586 129.4L177.542 130.38C176.898 129.176 176.338 128 175.974 126.964C175.526 127.02 174.994 127.076 174.49 127.076C171.41 127.076 168.694 125.48 168.694 122.512C168.694 120.44 169.674 119.292 172.39 117.78C170.682 116.66 169.786 115.484 169.786 113.804C169.786 111.816 171.27 110.304 174.126 110.304C176.674 110.304 178.382 111.508 178.382 113.86C178.382 115.484 177.542 116.576 176.114 117.528C176.898 117.724 177.598 117.808 178.494 117.808C179.978 117.808 181.406 117.472 182.582 116.744V112.572H180.286V110.584H187.734V112.572H184.85ZM171.942 113.944C171.942 115.176 172.894 116.044 174.154 116.744C175.554 115.848 176.226 114.952 176.226 113.916C176.226 112.88 175.666 112.124 174.07 112.124C172.782 112.124 171.942 112.796 171.942 113.944ZM200.804 112.572V128H198.536V118.816H194.644C192.292 118.816 190.864 119.544 190.864 121.532C190.864 123.352 192.04 124.836 194.28 126.964L192.684 128.392C190.052 125.844 188.596 123.744 188.596 121.252C188.596 118.228 190.808 116.828 194.252 116.828H198.536V112.572H187.336V110.584H203.688V112.572H200.804ZM224.343 121.952C224.343 124.696 222.327 126.264 219.583 126.264C216.251 126.264 214.011 124.304 211.855 118.368L213.843 117.556C215.355 121.924 216.951 124.22 219.387 124.22C221.039 124.22 222.131 123.296 222.131 121.7C222.131 120.412 221.263 119.404 220.171 118.62C219.471 118.816 218.631 118.956 217.679 119.04L217.231 117.052C220.731 116.604 221.655 115.848 221.655 114.308C221.655 113.076 220.843 112.292 219.331 112.292C218.071 112.292 216.867 112.684 215.663 113.412L214.935 111.452C216.223 110.724 217.679 110.304 219.415 110.304C222.607 110.304 223.895 112.18 223.895 114.336C223.895 115.792 223.363 116.968 222.103 117.78L222.159 117.836C223.055 118.06 224.035 118.144 224.903 118.144C225.771 118.144 226.695 118.06 227.675 117.808V112.572H225.631V110.584H234.787C233.023 108.624 232.267 108.316 230.923 108.316C230.055 108.316 229.159 108.568 228.431 108.904L227.731 106.944C228.571 106.58 229.523 106.356 230.419 106.356C232.183 106.356 233.079 107 234.647 108.624L234.759 108.568C233.191 105.46 232.435 104.844 230.867 104.844C230.223 104.844 229.607 104.984 228.879 105.264L228.235 103.332C228.991 103.052 229.887 102.912 230.783 102.912C233.863 102.912 234.899 104.396 236.971 110.584H240.079V112.572H237.195V128H234.927V112.572H229.943V128H227.675V119.88C226.919 120.076 226.135 120.132 225.351 120.132C224.903 120.132 224.371 120.104 223.839 120.02C224.175 120.608 224.343 121.28 224.343 121.952ZM250.255 126.824L248.631 128.336C245.691 125.676 243.619 123.52 242.163 121.448C241.239 120.132 240.875 119.236 240.875 118.396C240.875 117.528 241.407 116.968 242.359 116.968C243.171 116.968 243.927 117.444 244.655 118.284C246.195 117.556 246.867 116.408 246.867 114.896C246.867 114.056 246.671 113.132 246.391 112.572H239.699V110.584H251.571V112.572H248.715C248.995 113.356 249.107 114.168 249.107 115.176C249.107 118.2 247.175 119.824 244.291 121.056C245.831 122.876 248.043 124.948 250.255 126.824ZM272.195 121.952C272.195 124.696 270.179 126.264 267.435 126.264C264.103 126.264 261.863 124.304 259.707 118.368L261.695 117.556C263.207 121.924 264.803 124.22 267.239 124.22C268.891 124.22 269.983 123.296 269.983 121.7C269.983 120.412 269.115 119.404 268.023 118.62C267.323 118.816 266.483 118.956 265.531 119.04L265.083 117.052C268.583 116.604 269.507 115.848 269.507 114.308C269.507 113.076 268.695 112.292 267.183 112.292C265.923 112.292 264.719 112.684 263.515 113.412L262.787 111.452C264.075 110.724 265.531 110.304 267.267 110.304C270.459 110.304 271.747 112.18 271.747 114.336C271.747 115.792 271.215 116.968 269.955 117.78L270.011 117.836C270.907 118.06 271.887 118.144 272.755 118.144C273.623 118.144 274.547 118.06 275.527 117.808V112.572H273.483V110.584H287.931V112.572H285.047V128H282.779V112.572H277.795V128H275.527V119.88C274.771 120.076 273.987 120.132 273.203 120.132C272.755 120.132 272.223 120.104 271.691 120.02C272.027 120.608 272.195 121.28 272.195 121.952ZM305.135 112.572H302.251V128H299.983V123.968C299.031 124.668 297.631 125.144 295.811 125.144C292.451 125.144 290.267 123.436 290.267 120.916C290.267 119.964 290.603 118.984 291.471 118.256C289.987 117.332 288.923 115.988 288.923 114.112C288.923 111.732 290.519 110.304 293.095 110.304C295.615 110.304 296.735 111.704 296.735 113.412C296.735 114.392 296.343 115.232 295.503 116.016L293.823 115.008C294.327 114.504 294.579 113.972 294.579 113.44C294.579 112.6 294.075 112.096 293.095 112.096C291.891 112.096 291.107 112.936 291.107 114.28C291.107 115.596 291.863 116.548 293.263 117.248C293.907 117.052 294.635 116.996 295.391 116.996C295.923 116.996 296.483 117.052 296.903 117.136L296.679 119.096C296.315 119.04 295.951 119.012 295.447 119.012C293.515 119.012 292.507 119.712 292.507 121.028C292.507 122.456 293.879 123.184 295.783 123.184C297.519 123.184 299.003 122.428 299.983 121.252V112.572H298.247V110.584H305.135V112.572ZM300.214 135.504C296.938 135.504 294.446 133.908 291.982 131.08L293.634 129.596C295.846 132.312 297.722 133.488 300.13 133.488C302.118 133.488 303.098 132.732 303.098 131.416C303.098 130.352 302.482 129.596 301.166 129.596C300.102 129.596 299.206 130.072 298.338 130.884L297.078 129.344C298.142 128.28 299.402 127.692 301.194 127.692C303.77 127.692 305.198 129.344 305.198 131.612C305.198 134.048 303.434 135.504 300.214 135.504ZM309.51 112.572V128H307.242V112.572H304.75V110.584H306.99C306.542 109.744 306.234 108.876 306.234 107.756C306.234 104.76 308.698 102.912 312.506 102.912C317.938 102.912 322.306 106.216 324.966 110.78H322.67C319.982 106.916 316.566 104.928 313.066 104.928C310.182 104.928 308.502 106.048 308.502 108.064C308.502 109.156 308.922 109.968 309.37 110.584H312.394V112.572H309.51ZM311.996 110.584H327.928V112.572H325.044V128H322.776V119.656H317.708V121.168C317.708 122.204 317.148 122.736 316.28 122.736C314.908 122.736 313.032 120.664 313.032 119.096C313.032 118.256 313.48 117.668 314.74 117.668H322.776V112.572H311.996V110.584ZM349.451 112.572H340.351V117.976C341.135 117.276 342.255 116.8 343.627 116.8C346.287 116.8 347.855 118.508 347.855 121.28C347.855 123.24 347.155 125.004 345.503 126.824L343.543 125.592C344.775 124.332 345.615 122.96 345.615 121.252C345.615 119.628 344.803 118.76 343.375 118.76C342.199 118.76 341.051 119.572 340.351 120.832V128H338.083V123.24C337.075 124.136 335.731 124.696 334.051 124.696C331.195 124.696 328.815 123.072 328.815 119.852C328.815 116.8 330.943 115.008 334.583 115.008C335.535 115.008 336.403 115.12 337.103 115.288L336.907 117.332C336.263 117.164 335.479 117.052 334.639 117.052C332.343 117.052 331.083 118.06 331.083 119.936C331.083 121.784 332.371 122.68 334.051 122.68C335.759 122.68 337.243 121.728 338.083 120.524V112.572H327.527V110.584H349.451V112.572ZM373.39 110.584V112.572H370.506V128H368.238V123.156C367.258 123.828 366.054 124.304 364.318 124.304C360.706 124.304 358.662 122.232 357.682 117.976C360.566 117.444 361.742 116.66 361.742 115.148C361.742 114.168 361.266 113.272 360.51 112.572H356.758V110.584H373.39ZM360.482 119.404C361.154 121.336 362.218 122.316 364.29 122.316C366.026 122.316 367.286 121.42 368.238 120.384V112.572H362.946C363.646 113.468 363.982 114.448 363.982 115.4C363.982 117.388 362.89 118.62 360.482 119.404ZM368.464 135.504C365.188 135.504 362.696 133.908 360.232 131.08L361.884 129.596C364.096 132.312 365.972 133.488 368.38 133.488C370.368 133.488 371.348 132.732 371.348 131.416C371.348 130.352 370.732 129.596 369.416 129.596C368.352 129.596 367.456 130.072 366.588 130.884L365.328 129.344C366.392 128.28 367.652 127.692 369.444 127.692C372.02 127.692 373.448 129.344 373.448 131.612C373.448 134.048 371.684 135.504 368.464 135.504ZM388.96 112.572H386.076V128H383.836V123.576C382.772 124.36 381.372 124.78 379.748 124.78C376.668 124.78 374.288 123.016 374.288 119.908C374.288 116.576 376.696 115.008 380.084 115.008C381.12 115.008 382.044 115.12 382.828 115.316L382.688 117.332C381.904 117.164 381.12 117.052 380.168 117.052C378.068 117.052 376.556 118.06 376.556 119.964C376.556 121.644 377.648 122.764 379.748 122.764C381.4 122.764 382.856 122.008 383.836 120.832V112.572H373V110.584H388.96V112.572ZM393.319 112.572V128H391.051V112.572H388.559V110.584H396.203V112.572H393.319ZM23.5193 146.572V155.448C23.5193 156.428 23.0153 157.016 22.1753 157.016C20.7193 157.016 18.8433 154.944 18.8433 153.376C18.8433 152.536 19.2913 151.948 20.5513 151.948H21.2513V146.572H17.6953V144.584H33.8513V146.572H30.9673V162H28.6993V146.572H23.5193ZM38.2327 146.572V162H35.9647V146.572H33.4727V144.584H35.9367C34.4247 139.768 33.8647 138.956 31.9887 138.956C31.2047 138.956 30.3367 139.152 29.6647 139.404L29.0487 137.416C29.8327 137.108 30.8967 136.912 31.8487 136.912C35.1247 136.912 36.1327 138.508 38.0087 144.584H41.1167V146.572H38.2327ZM54.1308 146.572V162H51.8628V156.372C50.9388 157.044 49.6228 157.492 48.1668 157.492C44.8347 157.492 42.9308 155.644 42.9308 151.92V146.572H40.7188V144.584H57.0428V146.572H54.1308ZM51.8628 146.572H45.1988V152.004C45.1988 154.412 46.2348 155.504 48.1107 155.504C49.5388 155.504 50.9108 154.72 51.8628 153.712V146.572ZM61.3928 146.572V162H59.1248V146.572H56.6328V144.584H64.2768V146.572H61.3928ZM63.8789 146.572V144.584H83.2549V146.572H80.3709V162H78.1029V151.976C77.9909 151.976 77.8789 151.976 77.7669 151.976C75.8629 151.976 74.5469 153.152 73.9589 156.596L71.7189 155.924C71.8869 154.72 72.1949 153.712 72.6429 152.872C72.0269 152.312 71.2429 151.976 70.2349 151.976C68.4709 151.976 67.4069 153.124 67.4069 154.888C67.4069 157.016 68.8909 158.696 72.3349 160.656L71.0189 162.392C67.3509 160.236 65.1389 157.856 65.1389 154.664C65.1389 151.556 67.1549 149.96 70.0109 149.96C71.6069 149.96 72.8389 150.52 73.7909 151.388C74.7989 150.464 76.1149 150.016 77.7669 150.016C77.8789 150.016 77.9909 150.016 78.1029 150.016V146.572H63.8789ZM82.8555 144.584H98.7875V146.572H95.9035V162H93.6355V153.656H88.5675V155.168C88.5675 156.204 88.0075 156.736 87.1395 156.736C85.7675 156.736 83.8915 154.664 83.8915 153.096C83.8915 152.256 84.3395 151.668 85.5995 151.668H93.6355V146.572H82.8555V144.584ZM128.049 146.572H118.949V151.976C119.733 151.276 120.853 150.8 122.225 150.8C124.885 150.8 126.453 152.508 126.453 155.28C126.453 157.24 125.753 159.004 124.101 160.824L122.141 159.592C123.373 158.332 124.213 156.96 124.213 155.252C124.213 153.628 123.401 152.76 121.973 152.76C120.797 152.76 119.649 153.572 118.949 154.832V162H116.681V157.24C115.673 158.136 114.329 158.696 112.649 158.696C109.793 158.696 107.413 157.072 107.413 153.852C107.413 150.8 109.541 149.008 113.181 149.008C114.133 149.008 115.001 149.12 115.701 149.288L115.505 151.332C114.861 151.164 114.077 151.052 113.237 151.052C110.941 151.052 109.681 152.06 109.681 153.936C109.681 155.784 110.969 156.68 112.649 156.68C114.357 156.68 115.841 155.728 116.681 154.524V146.572H106.125V144.584H128.049V146.572ZM132.377 146.572V162H130.109V146.572H127.617V144.584H130.081C128.569 139.768 128.009 138.956 126.133 138.956C125.349 138.956 124.481 139.152 123.809 139.404L123.193 137.416C123.977 137.108 125.041 136.912 125.993 136.912C129.269 136.912 130.277 138.508 132.153 144.584H135.261V146.572H132.377ZM156.07 146.572V162H153.802V152.816H149.91C147.558 152.816 146.13 153.544 146.13 155.532C146.13 157.352 147.306 158.836 149.546 160.964L147.95 162.392C145.318 159.844 143.862 157.744 143.862 155.252C143.862 152.228 146.074 150.828 149.518 150.828H153.802V146.572H142.602V144.584H158.954V146.572H156.07ZM180.494 146.572H171.394V151.976C172.178 151.276 173.298 150.8 174.67 150.8C177.33 150.8 178.898 152.508 178.898 155.28C178.898 157.24 178.198 159.004 176.546 160.824L174.586 159.592C175.818 158.332 176.658 156.96 176.658 155.252C176.658 153.628 175.846 152.76 174.418 152.76C173.242 152.76 172.094 153.572 171.394 154.832V162H169.126V157.24C168.118 158.136 166.774 158.696 165.094 158.696C162.238 158.696 159.858 157.072 159.858 153.852C159.858 150.8 161.986 149.008 165.626 149.008C166.578 149.008 167.446 149.12 168.146 149.288L167.95 151.332C167.306 151.164 166.522 151.052 165.682 151.052C163.386 151.052 162.126 152.06 162.126 153.936C162.126 155.784 163.414 156.68 165.094 156.68C166.802 156.68 168.286 155.728 169.126 154.524V146.572H158.57V144.584H180.494V146.572ZM180.062 144.584H195.995V146.572H193.111V162H190.843V153.656H185.775V155.168C185.775 156.204 185.215 156.736 184.347 156.736C182.975 156.736 181.099 154.664 181.099 153.096C181.099 152.256 181.547 151.668 182.807 151.668H190.843V146.572H180.062V144.584ZM200.354 146.572V162H198.086V146.572H195.594V144.584H198.03C197.19 140.748 195.902 138.9 193.998 138.9C192.402 138.9 191.702 139.852 191.702 141.392C191.702 142.484 192.094 143.576 192.654 144.78H190.414C189.77 143.464 189.434 142.148 189.434 140.972C189.434 138.592 190.974 136.912 193.634 136.912C197.414 136.912 199.066 139.628 200.13 144.584H203.238V146.572H200.354ZM224.764 146.572H215.664V151.976C216.448 151.276 217.568 150.8 218.94 150.8C221.6 150.8 223.168 152.508 223.168 155.28C223.168 157.24 222.468 159.004 220.816 160.824L218.856 159.592C220.088 158.332 220.928 156.96 220.928 155.252C220.928 153.628 220.116 152.76 218.688 152.76C217.512 152.76 216.364 153.572 215.664 154.832V162H213.396V157.24C212.388 158.136 211.044 158.696 209.364 158.696C206.508 158.696 204.128 157.072 204.128 153.852C204.128 150.8 206.256 149.008 209.896 149.008C210.848 149.008 211.716 149.12 212.416 149.288L212.22 151.332C211.576 151.164 210.792 151.052 209.952 151.052C207.656 151.052 206.396 152.06 206.396 153.936C206.396 155.784 207.684 156.68 209.364 156.68C211.072 156.68 212.556 155.728 213.396 154.524V146.572H202.84V144.584H224.764V146.572ZM245.37 155.952C245.37 158.696 243.354 160.264 240.61 160.264C237.278 160.264 235.038 158.304 232.882 152.368L234.87 151.556C236.382 155.924 237.978 158.22 240.414 158.22C242.066 158.22 243.158 157.296 243.158 155.7C243.158 154.412 242.29 153.404 241.198 152.62C240.498 152.816 239.658 152.956 238.706 153.04L238.258 151.052C241.758 150.604 242.682 149.848 242.682 148.308C242.682 147.076 241.87 146.292 240.358 146.292C239.098 146.292 237.894 146.684 236.69 147.412L235.962 145.452C237.25 144.724 238.706 144.304 240.442 144.304C243.634 144.304 244.922 146.18 244.922 148.336C244.922 149.792 244.39 150.968 243.13 151.78L243.186 151.836C244.082 152.06 245.062 152.144 245.93 152.144C246.798 152.144 247.722 152.06 248.702 151.808V146.572H246.658V144.584H261.106V146.572H258.222V162H255.954V146.572H250.97V162H248.702V153.88C247.946 154.076 247.162 154.132 246.378 154.132C245.93 154.132 245.398 154.104 244.866 154.02C245.202 154.608 245.37 155.28 245.37 155.952ZM278.311 146.572H275.427V162H273.159V157.968C272.207 158.668 270.807 159.144 268.987 159.144C265.627 159.144 263.443 157.436 263.443 154.916C263.443 153.964 263.779 152.984 264.647 152.256C263.163 151.332 262.099 149.988 262.099 148.112C262.099 145.732 263.695 144.304 266.271 144.304C268.791 144.304 269.911 145.704 269.911 147.412C269.911 148.392 269.519 149.232 268.679 150.016L266.999 149.008C267.503 148.504 267.755 147.972 267.755 147.44C267.755 146.6 267.251 146.096 266.271 146.096C265.067 146.096 264.283 146.936 264.283 148.28C264.283 149.596 265.039 150.548 266.439 151.248C267.083 151.052 267.811 150.996 268.567 150.996C269.099 150.996 269.659 151.052 270.079 151.136L269.855 153.096C269.491 153.04 269.127 153.012 268.623 153.012C266.691 153.012 265.683 153.712 265.683 155.028C265.683 156.456 267.055 157.184 268.959 157.184C270.695 157.184 272.179 156.428 273.159 155.252V146.572H271.423V144.584H278.311V146.572ZM282.686 146.572V162H280.418V146.572H277.926V144.584H285.57V146.572H282.686ZM289.932 146.572V162H287.664V146.572H285.172V144.584H287.468C286.964 143.576 286.656 142.568 286.656 141.42C286.656 138.732 288.644 136.912 291.696 136.912C295.784 136.912 298.64 139.6 300.768 144.78H298.444C296.708 140.804 294.552 138.9 292.004 138.9C290.1 138.9 288.924 139.992 288.924 141.756C288.924 142.904 289.344 143.772 289.764 144.584H292.816V146.572H289.932ZM302.974 160.824L301.35 162.336C298.41 159.676 296.338 157.52 294.882 155.448C293.958 154.132 293.594 153.236 293.594 152.396C293.594 151.528 294.126 150.968 295.078 150.968C295.89 150.968 296.646 151.444 297.374 152.284C298.914 151.556 299.586 150.408 299.586 148.896C299.586 148.056 299.39 147.132 299.11 146.572H292.418V144.584H304.29V146.572H301.434C301.714 147.356 301.826 148.168 301.826 149.176C301.826 152.2 299.894 153.824 297.01 155.056C298.55 156.876 300.762 158.948 302.974 160.824ZM317.343 146.572V162H315.075V152.816H311.183C308.831 152.816 307.403 153.544 307.403 155.532C307.403 157.352 308.579 158.836 310.819 160.964L309.223 162.392C306.591 159.844 305.135 157.744 305.135 155.252C305.135 152.228 307.347 150.828 310.791 150.828H315.075V146.572H303.875V144.584H320.227V146.572H317.343ZM343.962 146.572H341.078V162H338.81V157.716C337.69 158.444 336.346 158.836 334.582 158.836C331.054 158.836 328.87 156.904 328.87 153.936C328.87 150.52 331.39 148.896 334.974 148.896C336.094 148.896 337.018 148.98 337.83 149.176L337.662 151.108C336.85 150.912 336.01 150.828 335.142 150.828C334.722 150.828 334.302 150.856 333.938 150.912L337.858 155.924C338.222 155.672 338.53 155.42 338.81 155.14V146.572H327.582V144.584H343.962V146.572ZM331.138 153.936C331.138 155.952 332.566 156.932 334.666 156.932C335.226 156.932 335.758 156.848 336.262 156.68L332.23 151.584C331.53 152.088 331.138 152.872 331.138 153.936ZM343.578 144.584H359.51V146.572H356.626V162H354.358V153.656H349.29V155.168C349.29 156.204 348.73 156.736 347.862 156.736C346.49 156.736 344.614 154.664 344.614 153.096C344.614 152.256 345.062 151.668 346.322 151.668H354.358V146.572H343.578V144.584ZM363.869 146.572V162H361.601V146.572H359.109V144.584H366.753V146.572H363.869ZM388.279 146.572H379.179V151.976C379.963 151.276 381.083 150.8 382.455 150.8C385.115 150.8 386.683 152.508 386.683 155.28C386.683 157.24 385.983 159.004 384.331 160.824L382.371 159.592C383.603 158.332 384.443 156.96 384.443 155.252C384.443 153.628 383.631 152.76 382.203 152.76C381.027 152.76 379.879 153.572 379.179 154.832V162H376.911V157.24C375.903 158.136 374.559 158.696 372.879 158.696C370.023 158.696 367.643 157.072 367.643 153.852C367.643 150.8 369.771 149.008 373.411 149.008C374.363 149.008 375.231 149.12 375.931 149.288L375.735 151.332C375.091 151.164 374.307 151.052 373.467 151.052C371.171 151.052 369.911 152.06 369.911 153.936C369.911 155.784 371.199 156.68 372.879 156.68C374.587 156.68 376.071 155.728 376.911 154.524V146.572H366.355V144.584H388.279V146.572ZM398.404 160.824L396.78 162.336C393.84 159.676 391.768 157.52 390.312 155.448C389.388 154.132 389.024 153.236 389.024 152.396C389.024 151.528 389.556 150.968 390.508 150.968C391.32 150.968 392.076 151.444 392.804 152.284C394.344 151.556 395.016 150.408 395.016 148.896C395.016 148.056 394.82 147.132 394.54 146.572H387.848V144.584H399.72V146.572H396.864C397.144 147.356 397.256 148.168 397.256 149.176C397.256 152.2 395.324 153.824 392.44 155.056C393.98 156.876 396.192 158.948 398.404 160.824ZM10.0388 180.572V189.448C10.0388 190.428 9.53484 191.016 8.69484 191.016C7.23884 191.016 5.36284 188.944 5.36284 187.376C5.36284 186.536 5.81084 185.948 7.07084 185.948H7.77084V180.572H4.21484V178.584H20.3708V180.572H17.4868V196H15.2188V180.572H10.0388ZM24.7522 180.572V196H22.4842V180.572H19.9922V178.584H22.4562C20.9442 173.768 20.3842 172.956 18.5082 172.956C17.7242 172.956 16.8562 173.152 16.1842 173.404L15.5682 171.416C16.3522 171.108 17.4162 170.912 18.3682 170.912C21.6442 170.912 22.6522 172.508 24.5282 178.584H27.6362V180.572H24.7522ZM40.6503 180.572V196H38.3823V190.372C37.4583 191.044 36.1423 191.492 34.6863 191.492C31.3543 191.492 29.4503 189.644 29.4503 185.92V180.572H27.2383V178.584H43.5623V180.572H40.6503ZM38.3823 180.572H31.7183V186.004C31.7183 188.412 32.7543 189.504 34.6303 189.504C36.0583 189.504 37.4303 188.72 38.3823 187.712V180.572ZM47.9123 180.572V196H45.6443V180.572H43.1523V178.584H50.7963V180.572H47.9123ZM50.3984 180.572V178.584H69.7744V180.572H66.8904V196H64.6224V185.976C64.5104 185.976 64.3984 185.976 64.2864 185.976C62.3824 185.976 61.0664 187.152 60.4784 190.596L58.2384 189.924C58.4064 188.72 58.7144 187.712 59.1624 186.872C58.5464 186.312 57.7624 185.976 56.7544 185.976C54.9904 185.976 53.9264 187.124 53.9264 188.888C53.9264 191.016 55.4104 192.696 58.8544 194.656L57.5384 196.392C53.8704 194.236 51.6584 191.856 51.6584 188.664C51.6584 185.556 53.6744 183.96 56.5304 183.96C58.1264 183.96 59.3584 184.52 60.3104 185.388C61.3184 184.464 62.6344 184.016 64.2864 184.016C64.3984 184.016 64.5104 184.016 64.6224 184.016V180.572H50.3984ZM69.375 178.584H85.307V180.572H82.423V196H80.155V187.656H75.087V189.168C75.087 190.204 74.527 190.736 73.659 190.736C72.287 190.736 70.411 188.664 70.411 187.096C70.411 186.256 70.859 185.668 72.119 185.668H80.155V180.572H69.375V178.584ZM114.569 180.572H105.469V185.976C106.253 185.276 107.373 184.8 108.745 184.8C111.405 184.8 112.973 186.508 112.973 189.28C112.973 191.24 112.273 193.004 110.621 194.824L108.661 193.592C109.893 192.332 110.733 190.96 110.733 189.252C110.733 187.628 109.921 186.76 108.493 186.76C107.317 186.76 106.169 187.572 105.469 188.832V196H103.201V191.24C102.193 192.136 100.849 192.696 99.1685 192.696C96.3125 192.696 93.9325 191.072 93.9325 187.852C93.9325 184.8 96.0605 183.008 99.7005 183.008C100.653 183.008 101.521 183.12 102.221 183.288L102.025 185.332C101.381 185.164 100.597 185.052 99.7565 185.052C97.4605 185.052 96.2005 186.06 96.2005 187.936C96.2005 189.784 97.4885 190.68 99.1685 190.68C100.877 190.68 102.361 189.728 103.201 188.524V180.572H92.6445V178.584H114.569V180.572ZM118.897 180.572V196H116.629V180.572H114.137V178.584H116.601C115.089 173.768 114.529 172.956 112.653 172.956C111.869 172.956 111.001 173.152 110.329 173.404L109.713 171.416C110.497 171.108 111.561 170.912 112.513 170.912C115.789 170.912 116.797 172.508 118.673 178.584H121.781V180.572H118.897ZM135.869 192.78C132.789 192.78 130.409 191.016 130.409 187.908C130.409 184.576 132.817 183.008 136.205 183.008C137.269 183.008 138.221 183.12 139.033 183.344L138.893 185.36C138.081 185.164 137.269 185.052 136.289 185.052C134.189 185.052 132.677 186.06 132.677 187.964C132.677 189.644 133.769 190.764 135.869 190.764C137.885 190.764 139.593 189.7 140.461 188.524C140.125 187.768 139.845 186.928 139.621 185.976C142.505 185.444 143.681 184.66 143.681 183.148C143.681 182.168 143.205 181.272 142.449 180.572H129.121V178.584H155.329V180.572H152.445V196H150.177V191.156C149.197 191.828 147.993 192.304 146.257 192.304C144.213 192.304 142.673 191.632 141.553 190.288C140.237 191.884 138.249 192.78 135.869 192.78ZM142.421 187.404C143.093 189.336 144.157 190.316 146.229 190.316C147.965 190.316 149.225 189.42 150.177 188.384V180.572H144.885C145.585 181.468 145.921 182.448 145.921 183.4C145.921 185.388 144.829 186.62 142.421 187.404ZM170.894 180.572H168.01V196H165.77V191.576C164.706 192.36 163.306 192.78 161.682 192.78C158.602 192.78 156.222 191.016 156.222 187.908C156.222 184.576 158.63 183.008 162.018 183.008C163.054 183.008 163.978 183.12 164.762 183.316L164.622 185.332C163.838 185.164 163.054 185.052 162.102 185.052C160.002 185.052 158.49 186.06 158.49 187.964C158.49 189.644 159.582 190.764 161.682 190.764C163.334 190.764 164.79 190.008 165.77 188.832V180.572H154.934V178.584H170.894V180.572ZM178.528 196.392C175.728 193.648 173.46 190.82 172.452 188.972C171.92 188.02 171.668 187.18 171.668 186.48C171.668 185.5 172.228 184.968 173.18 184.968C173.992 184.968 174.748 185.472 175.476 186.312C176.484 185.612 176.82 184.352 176.82 183.12C176.82 182.084 176.596 181.16 176.344 180.572H170.492V178.584H189.812V180.572H186.928V196H184.66V188.832C183.708 189.056 182.728 189.168 181.692 189.168C180.208 189.168 178.444 188.888 176.876 188.076C176.316 188.496 175.588 188.86 174.748 189.14C176.092 190.96 177.996 192.808 180.236 194.88L178.528 196.392ZM181.664 187.152C182.728 187.152 183.68 187.04 184.66 186.76V180.572H178.64C178.948 181.384 179.088 182.28 179.088 183.4C179.088 184.632 178.808 185.696 178.22 186.592C179.368 187.012 180.404 187.152 181.664 187.152ZM194.174 180.572V196H191.906V180.572H189.414V178.584H197.058V180.572H194.174ZM213.292 178.584V180.572H210.408V196H208.14V191.156C207.16 191.828 205.956 192.304 204.22 192.304C200.608 192.304 198.564 190.232 197.584 185.976C200.468 185.444 201.644 184.66 201.644 183.148C201.644 182.168 201.168 181.272 200.412 180.572H196.66V178.584H213.292ZM200.384 187.404C201.056 189.336 202.12 190.316 204.192 190.316C205.928 190.316 207.188 189.42 208.14 188.384V180.572H202.848C203.548 181.468 203.884 182.448 203.884 183.4C203.884 185.388 202.792 186.62 200.384 187.404ZM242.565 180.572H233.465V185.976C234.249 185.276 235.369 184.8 236.741 184.8C239.401 184.8 240.969 186.508 240.969 189.28C240.969 191.24 240.269 193.004 238.617 194.824L236.657 193.592C237.889 192.332 238.729 190.96 238.729 189.252C238.729 187.628 237.917 186.76 236.489 186.76C235.313 186.76 234.165 187.572 233.465 188.832V196H231.197V191.24C230.189 192.136 228.845 192.696 227.165 192.696C224.309 192.696 221.929 191.072 221.929 187.852C221.929 184.8 224.057 183.008 227.697 183.008C228.649 183.008 229.517 183.12 230.217 183.288L230.021 185.332C229.377 185.164 228.593 185.052 227.753 185.052C225.457 185.052 224.197 186.06 224.197 187.936C224.197 189.784 225.485 190.68 227.165 190.68C228.873 190.68 230.357 189.728 231.197 188.524V180.572H220.641V178.584H242.565V180.572ZM231.221 178.78C229.681 173.796 229.121 172.956 227.217 172.956C226.433 172.956 225.565 173.152 224.893 173.404L224.277 171.416C225.061 171.108 226.125 170.912 227.077 170.912C230.353 170.912 231.361 172.508 233.293 178.78H231.221ZM263.955 191.492C261.491 191.492 259.923 189.952 259.923 187.628C259.923 187.516 259.923 187.376 259.923 187.264C259.391 186.984 258.775 186.788 258.019 186.704C257.179 187.684 255.947 188.412 254.463 189.056C256.003 190.876 258.215 192.948 260.427 194.824L258.803 196.336C255.863 193.676 253.791 191.52 252.335 189.448C251.411 188.132 251.047 187.236 251.047 186.396C251.047 185.528 251.579 184.968 252.531 184.968C253.343 184.968 254.099 185.444 254.827 186.284C256.367 185.556 257.039 184.408 257.039 182.896C257.039 182.056 256.843 181.132 256.563 180.572H249.871V178.584H272.047V180.572H258.887C259.167 181.356 259.279 182.168 259.279 183.176C259.279 183.82 259.195 184.38 259.027 184.912C259.587 185.024 260.063 185.164 260.511 185.388C261.183 184.296 262.443 183.624 264.207 183.624C267.595 183.624 269.443 186.116 271.123 191.268L269.135 192.024C267.595 187.236 266.251 185.528 264.235 185.528C262.807 185.528 261.939 186.284 261.939 187.6C261.939 189.056 262.947 189.588 264.095 189.588C264.767 189.588 265.355 189.42 265.943 189.084L266.587 190.792C265.831 191.268 264.935 191.492 263.955 191.492ZM285.049 180.572V196H282.781V190.372C281.857 191.044 280.541 191.492 279.085 191.492C275.753 191.492 273.849 189.644 273.849 185.92V180.572H271.637V178.584H287.961V180.572H285.049ZM282.781 180.572H276.117V186.004C276.117 188.412 277.153 189.504 279.029 189.504C280.457 189.504 281.829 188.72 282.781 187.712V180.572ZM309.541 180.572V196H307.273V189H301.085V190.036C301.085 191.268 300.441 191.772 299.741 191.772C298.313 191.772 296.381 189.644 296.381 188.216C296.381 187.544 296.829 187.012 298.089 187.012H298.817V180.572H295.289V178.584H312.425V180.572H309.541ZM307.273 180.572H301.085V187.012H307.273V180.572ZM307.291 178.78C305.751 173.796 305.191 172.956 303.287 172.956C302.503 172.956 301.635 173.152 300.963 173.404L300.347 171.416C301.131 171.108 302.195 170.912 303.147 170.912C306.423 170.912 307.431 172.508 309.363 178.78H307.291ZM333.062 189.952C333.062 192.696 331.046 194.264 328.302 194.264C324.97 194.264 322.73 192.304 320.574 186.368L322.562 185.556C324.074 189.924 325.67 192.22 328.106 192.22C329.758 192.22 330.85 191.296 330.85 189.7C330.85 188.412 329.982 187.404 328.89 186.62C328.19 186.816 327.35 186.956 326.398 187.04L325.95 185.052C329.45 184.604 330.374 183.848 330.374 182.308C330.374 181.076 329.562 180.292 328.05 180.292C326.79 180.292 325.586 180.684 324.382 181.412L323.654 179.452C324.942 178.724 326.398 178.304 328.134 178.304C331.326 178.304 332.614 180.18 332.614 182.336C332.614 183.792 332.082 184.968 330.822 185.78L330.878 185.836C331.774 186.06 332.754 186.144 333.622 186.144C334.49 186.144 335.414 186.06 336.394 185.808V180.572H334.35V178.584H341.574V180.572H338.662V196H336.394V187.88C335.638 188.076 334.854 188.132 334.07 188.132C333.622 188.132 333.09 188.104 332.558 188.02C332.894 188.608 333.062 189.28 333.062 189.952ZM354.557 180.572V196H352.289V190.372C351.365 191.044 350.049 191.492 348.593 191.492C345.261 191.492 343.357 189.644 343.357 185.92V180.572H341.145V178.584H357.469V180.572H354.557ZM352.289 180.572H345.625V186.004C345.625 188.412 346.661 189.504 348.537 189.504C349.965 189.504 351.337 188.72 352.289 187.712V180.572ZM357.059 178.584H372.991V180.572H370.107V196H367.839V187.656H362.771V189.168C362.771 190.204 362.211 190.736 361.343 190.736C359.971 190.736 358.095 188.664 358.095 187.096C358.095 186.256 358.543 185.668 359.803 185.668H367.839V180.572H357.059V178.584ZM377.35 180.572V196H375.082V180.572H372.59V178.584H380.234V180.572H377.35ZM401.76 180.572H392.66V185.976C393.444 185.276 394.564 184.8 395.936 184.8C398.596 184.8 400.164 186.508 400.164 189.28C400.164 191.24 399.464 193.004 397.812 194.824L395.852 193.592C397.084 192.332 397.924 190.96 397.924 189.252C397.924 187.628 397.112 186.76 395.684 186.76C394.508 186.76 393.36 187.572 392.66 188.832V196H390.392V191.24C389.384 192.136 388.04 192.696 386.36 192.696C383.504 192.696 381.124 191.072 381.124 187.852C381.124 184.8 383.252 183.008 386.892 183.008C387.844 183.008 388.712 183.12 389.412 183.288L389.216 185.332C388.572 185.164 387.788 185.052 386.948 185.052C384.652 185.052 383.392 186.06 383.392 187.936C383.392 189.784 384.68 190.68 386.36 190.68C388.068 190.68 389.552 189.728 390.392 188.524V180.572H379.836V178.584H401.76V180.572ZM411.884 194.824L410.26 196.336C407.32 193.676 405.248 191.52 403.792 189.448C402.868 188.132 402.504 187.236 402.504 186.396C402.504 185.528 403.036 184.968 403.988 184.968C404.8 184.968 405.556 185.444 406.284 186.284C407.824 185.556 408.496 184.408 408.496 182.896C408.496 182.056 408.3 181.132 408.02 180.572H401.328V178.584H413.2V180.572H410.344C410.624 181.356 410.736 182.168 410.736 183.176C410.736 186.2 408.804 187.824 405.92 189.056C407.46 190.876 409.672 192.948 411.884 194.824ZM17.3915 230.392C14.5915 227.648 12.3235 224.82 11.3155 222.972C10.7835 222.02 10.5315 221.18 10.5315 220.48C10.5315 219.5 11.0915 218.968 12.0435 218.968C12.8555 218.968 13.6115 219.472 14.3395 220.312C15.3475 219.612 15.6835 218.352 15.6835 217.12C15.6835 216.084 15.4595 215.16 15.2075 214.572H9.35547V212.584H28.6755V214.572H25.7915V230H23.5235V222.832C22.5715 223.056 21.5915 223.168 20.5555 223.168C19.0715 223.168 17.3075 222.888 15.7395 222.076C15.1795 222.496 14.4515 222.86 13.6115 223.14C14.9555 224.96 16.8595 226.808 19.0995 228.88L17.3915 230.392ZM20.5275 221.152C21.5915 221.152 22.5435 221.04 23.5235 220.76V214.572H17.5035C17.8115 215.384 17.9515 216.28 17.9515 217.4C17.9515 218.632 17.6715 219.696 17.0835 220.592C18.2315 221.012 19.2675 221.152 20.5275 221.152ZM42.5293 214.572V230H40.2613V223H34.0733V224.036C34.0733 225.268 33.4293 225.772 32.7293 225.772C31.3013 225.772 29.3693 223.644 29.3693 222.216C29.3693 221.544 29.8173 221.012 31.0773 221.012H31.8053V214.572H28.2773V212.584H45.4133V214.572H42.5293ZM40.2613 214.572H34.0733V221.012H40.2613V214.572ZM49.7717 214.572V230H47.5037V214.572H45.0117V212.584H52.6557V214.572H49.7717ZM70.5418 214.572V230H68.2738V219.64H64.4378C63.6818 219.64 63.1778 219.612 62.8418 219.556C64.1858 220.648 65.0818 222.244 65.0818 223.896C65.0818 226.5 63.1778 227.76 60.9378 227.76C57.9698 227.76 55.4778 225.436 53.1258 218.772L55.1138 218.072C56.8218 223.084 58.6418 225.716 60.8258 225.716C62.0298 225.716 62.8698 225.128 62.8698 223.644C62.8698 221.992 61.5818 220.508 59.9018 219.444L60.7138 217.652H68.2738V214.572H52.2578V212.584H73.4258V214.572H70.5418ZM102.701 214.572H93.6013V219.976C94.3853 219.276 95.5053 218.8 96.8773 218.8C99.5373 218.8 101.105 220.508 101.105 223.28C101.105 225.24 100.405 227.004 98.7533 228.824L96.7933 227.592C98.0253 226.332 98.8653 224.96 98.8653 223.252C98.8653 221.628 98.0533 220.76 96.6253 220.76C95.4493 220.76 94.3013 221.572 93.6013 222.832V230H91.3333V225.24C90.3253 226.136 88.9813 226.696 87.3013 226.696C84.4453 226.696 82.0653 225.072 82.0653 221.852C82.0653 218.8 84.1933 217.008 87.8333 217.008C88.7853 217.008 89.6533 217.12 90.3533 217.288L90.1573 219.332C89.5133 219.164 88.7293 219.052 87.8893 219.052C85.5933 219.052 84.3333 220.06 84.3333 221.936C84.3333 223.784 85.6213 224.68 87.3013 224.68C89.0093 224.68 90.4933 223.728 91.3333 222.524V214.572H80.7773V212.584H102.701V214.572ZM107.03 214.572V230H104.762V214.572H102.27V212.584H104.734C103.222 207.768 102.662 206.956 100.786 206.956C100.002 206.956 99.1335 207.152 98.4615 207.404L97.8455 205.416C98.6295 205.108 99.6935 204.912 100.646 204.912C103.922 204.912 104.93 206.508 106.806 212.584H109.914V214.572H107.03ZM120.936 218.366H118.78L118.514 211.464H121.216L120.936 218.366ZM125.738 218.366H123.582L123.316 211.464H126.018L125.738 218.366ZM127.289 212.584H143.221V214.572H140.337V230H138.069V221.656H133.001V223.168C133.001 224.204 132.441 224.736 131.573 224.736C130.201 224.736 128.325 222.664 128.325 221.096C128.325 220.256 128.773 219.668 130.033 219.668H138.069V214.572H127.289V212.584ZM164.744 214.572H155.644V219.976C156.428 219.276 157.548 218.8 158.92 218.8C161.58 218.8 163.148 220.508 163.148 223.28C163.148 225.24 162.448 227.004 160.796 228.824L158.836 227.592C160.068 226.332 160.908 224.96 160.908 223.252C160.908 221.628 160.096 220.76 158.668 220.76C157.492 220.76 156.344 221.572 155.644 222.832V230H153.376V225.24C152.368 226.136 151.024 226.696 149.344 226.696C146.488 226.696 144.108 225.072 144.108 221.852C144.108 218.8 146.236 217.008 149.876 217.008C150.828 217.008 151.696 217.12 152.396 217.288L152.2 219.332C151.556 219.164 150.772 219.052 149.932 219.052C147.636 219.052 146.376 220.06 146.376 221.936C146.376 223.784 147.664 224.68 149.344 224.68C151.052 224.68 152.536 223.728 153.376 222.524V214.572H142.82V212.584H164.744V214.572ZM164.312 214.572V212.584H183.689V214.572H180.805V230H178.537V219.976C178.425 219.976 178.312 219.976 178.201 219.976C176.297 219.976 174.981 221.152 174.393 224.596L172.153 223.924C172.321 222.72 172.629 221.712 173.077 220.872C172.461 220.312 171.677 219.976 170.669 219.976C168.905 219.976 167.841 221.124 167.841 222.888C167.841 225.016 169.325 226.696 172.769 228.656L171.453 230.392C167.785 228.236 165.573 225.856 165.573 222.664C165.573 219.556 167.589 217.96 170.445 217.96C172.041 217.96 173.273 218.52 174.225 219.388C175.233 218.464 176.549 218.016 178.201 218.016C178.312 218.016 178.425 218.016 178.537 218.016V214.572H164.312ZM188.049 214.572V230H185.781V214.572H183.289V212.584H185.725C184.885 208.748 183.597 206.9 181.693 206.9C180.097 206.9 179.397 207.852 179.397 209.392C179.397 210.484 179.789 211.576 180.349 212.78H178.109C177.465 211.464 177.129 210.148 177.129 208.972C177.129 206.592 178.669 204.912 181.329 204.912C185.109 204.912 186.761 207.628 187.825 212.584H190.933V214.572H188.049ZM215.689 238.232C213.589 233.78 211.993 232.156 209.361 232.156C207.681 232.156 206.701 232.884 206.701 234.2C206.701 235.488 207.681 236.048 208.885 236.048C209.697 236.048 210.397 235.88 211.153 235.376L211.993 237.168C211.125 237.812 210.117 238.064 208.941 238.064C206.225 238.064 204.601 236.496 204.601 234.144C204.601 231.792 206.281 230.364 209.025 230.252C208.689 229.384 208.409 228.516 208.185 227.76C207.709 227.844 207.177 227.9 206.477 227.9C203.173 227.9 199.757 226.304 199.757 222.3C199.757 218.912 202.137 217.26 206.645 217.26H208.185V214.572H198.273V212.584H213.421V214.572H210.453V219.22H206.981C203.705 219.22 202.025 220.228 202.025 222.412C202.025 224.624 203.761 225.856 206.449 225.856C206.785 225.856 207.149 225.828 207.541 225.772C207.401 225.352 207.345 224.932 207.345 224.54C207.345 223.448 208.045 222.776 209.249 222.776C210.621 222.776 211.629 223.84 211.629 224.988C211.629 225.912 211.069 226.668 210.061 227.2C210.453 228.292 210.901 229.356 211.601 230.56C214.149 231.372 215.913 233.668 217.593 237.224L215.689 238.232ZM230.76 214.572H227.876V230H225.608V225.968C224.656 226.668 223.256 227.144 221.436 227.144C218.076 227.144 215.892 225.436 215.892 222.916C215.892 221.964 216.228 220.984 217.096 220.256C215.612 219.332 214.548 217.988 214.548 216.112C214.548 213.732 216.144 212.304 218.72 212.304C221.24 212.304 222.36 213.704 222.36 215.412C222.36 216.392 221.968 217.232 221.128 218.016L219.448 217.008C219.952 216.504 220.204 215.972 220.204 215.44C220.204 214.6 219.7 214.096 218.72 214.096C217.516 214.096 216.732 214.936 216.732 216.28C216.732 217.596 217.488 218.548 218.888 219.248C219.532 219.052 220.26 218.996 221.016 218.996C221.548 218.996 222.108 219.052 222.528 219.136L222.304 221.096C221.94 221.04 221.576 221.012 221.072 221.012C219.14 221.012 218.132 221.712 218.132 223.028C218.132 224.456 219.504 225.184 221.408 225.184C223.144 225.184 224.628 224.428 225.608 223.252V214.572H223.872V212.584H230.76V214.572ZM234.057 218.366H231.901L231.635 211.464H234.337L234.057 218.366ZM238.859 218.366H236.703L236.437 211.464H239.139L238.859 218.366ZM266.432 214.572V230H264.164V219.64H260.328C259.572 219.64 259.068 219.612 258.732 219.556C260.076 220.648 260.972 222.244 260.972 223.896C260.972 226.5 259.068 227.76 256.828 227.76C253.86 227.76 251.368 225.436 249.016 218.772L251.004 218.072C252.712 223.084 254.532 225.716 256.716 225.716C257.92 225.716 258.76 225.128 258.76 223.644C258.76 221.992 257.472 220.508 255.792 219.444L256.604 217.652H264.164V214.572H248.148V212.584H269.316V214.572H266.432ZM264.198 212.78C262.322 210.652 261.566 210.316 260.166 210.316C259.298 210.316 258.402 210.568 257.674 210.904L256.974 208.944C257.814 208.58 258.766 208.356 259.662 208.356C261.426 208.356 262.322 209 263.89 210.624L264.002 210.568C262.434 207.46 261.678 206.844 260.11 206.844C259.466 206.844 258.85 206.984 258.122 207.264L257.478 205.332C258.234 205.052 259.13 204.912 260.026 204.912C263.106 204.912 264.142 206.396 266.27 212.78H264.198ZM276.966 230.392C274.166 227.648 271.898 224.82 270.89 222.972C270.358 222.02 270.106 221.18 270.106 220.48C270.106 219.5 270.666 218.968 271.618 218.968C272.43 218.968 273.186 219.472 273.914 220.312C274.922 219.612 275.258 218.352 275.258 217.12C275.258 216.084 275.034 215.16 274.782 214.572H268.93V212.584H288.25V214.572H285.366V230H283.098V222.832C282.146 223.056 281.166 223.168 280.13 223.168C278.646 223.168 276.882 222.888 275.314 222.076C274.754 222.496 274.026 222.86 273.186 223.14C274.53 224.96 276.434 226.808 278.674 228.88L276.966 230.392ZM280.102 221.152C281.166 221.152 282.118 221.04 283.098 220.76V214.572H277.078C277.386 215.384 277.526 216.28 277.526 217.4C277.526 218.632 277.246 219.696 276.658 220.592C277.806 221.012 278.842 221.152 280.102 221.152ZM283.12 212.78C281.58 207.796 281.02 206.956 279.116 206.956C278.332 206.956 277.464 207.152 276.792 207.404L276.176 205.416C276.96 205.108 278.024 204.912 278.976 204.912C282.252 204.912 283.26 206.508 285.192 212.78H283.12ZM300.35 214.572V230H298.082V214.572H295.59V212.584H297.83C297.382 211.744 297.074 210.876 297.074 209.756C297.074 206.76 299.538 204.912 303.346 204.912C308.778 204.912 313.146 208.216 315.806 212.78H313.51C310.822 208.916 307.406 206.928 303.906 206.928C301.022 206.928 299.342 208.048 299.342 210.064C299.342 211.156 299.762 211.968 300.21 212.584H303.234V214.572H300.35ZM318.796 214.572H315.912V230H313.672V225.576C312.608 226.36 311.208 226.78 309.584 226.78C306.504 226.78 304.124 225.016 304.124 221.908C304.124 218.576 306.532 217.008 309.92 217.008C310.956 217.008 311.88 217.12 312.664 217.316L312.524 219.332C311.74 219.164 310.956 219.052 310.004 219.052C307.904 219.052 306.392 220.06 306.392 221.964C306.392 223.644 307.484 224.764 309.584 224.764C311.236 224.764 312.692 224.008 313.672 222.832V214.572H302.836V212.584H318.796V214.572ZM318.395 212.584H334.327V214.572H331.443V230H329.175V221.656H324.107V223.168C324.107 224.204 323.547 224.736 322.679 224.736C321.307 224.736 319.431 222.664 319.431 221.096C319.431 220.256 319.879 219.668 321.139 219.668H329.175V214.572H318.395V212.584ZM338.686 214.572V230H336.418V214.572H333.926V212.584H341.57V214.572H338.686ZM344.784 225.156C343.104 225.156 341.956 224.316 341.956 223.028C341.956 221.964 342.712 221.348 343.804 221.348C344.728 221.348 345.428 221.74 346.24 222.636C348.48 221.908 349.992 220.116 349.992 217.372C349.992 215.272 349.04 214.152 347.36 214.152C346.072 214.152 345.344 214.88 345.344 215.86C345.344 217.176 346.52 217.736 348.452 217.876L348.116 219.696C345.176 219.472 343.272 218.184 343.272 215.748C343.272 213.648 344.728 212.304 347.304 212.304C350.3 212.304 352.204 214.264 352.204 217.54C352.204 220.872 350.356 223.196 347.64 224.344C349.124 225.772 350.44 227.368 351.588 228.936L349.656 230.168C348.06 227.928 346.772 226.304 345.68 225.072C345.372 225.128 345.12 225.156 344.784 225.156ZM357.72 214.572V230H355.452V214.572H352.96V212.584H360.604V214.572H357.72ZM382.127 214.572H373.027V219.976C373.811 219.276 374.931 218.8 376.303 218.8C378.963 218.8 380.531 220.508 380.531 223.28C380.531 225.24 379.831 227.004 378.179 228.824L376.219 227.592C377.451 226.332 378.291 224.96 378.291 223.252C378.291 221.628 377.479 220.76 376.051 220.76C374.875 220.76 373.727 221.572 373.027 222.832V230H370.759V225.24C369.751 226.136 368.407 226.696 366.727 226.696C363.871 226.696 361.491 225.072 361.491 221.852C361.491 218.8 363.619 217.008 367.259 217.008C368.211 217.008 369.079 217.12 369.779 217.288L369.583 219.332C368.939 219.164 368.155 219.052 367.315 219.052C365.019 219.052 363.759 220.06 363.759 221.936C363.759 223.784 365.047 224.68 366.727 224.68C368.435 224.68 369.919 223.728 370.759 222.524V214.572H360.203V212.584H382.127V214.572ZM386.455 214.572V230H384.187V214.572H381.695V212.584H389.339V214.572H386.455ZM399.497 228.824L397.873 230.336C394.933 227.676 392.861 225.52 391.405 223.448C390.481 222.132 390.117 221.236 390.117 220.396C390.117 219.528 390.649 218.968 391.601 218.968C392.413 218.968 393.169 219.444 393.897 220.284C395.437 219.556 396.109 218.408 396.109 216.896C396.109 216.056 395.913 215.132 395.633 214.572H388.941V212.584H400.813V214.572H397.957C398.237 215.356 398.349 216.168 398.349 217.176C398.349 220.2 396.417 221.824 393.533 223.056C395.073 224.876 397.285 226.948 399.497 228.824ZM405.158 214.572V230H402.89V214.572H400.398V212.584H402.834C401.994 208.748 400.706 206.9 398.802 206.9C397.206 206.9 396.506 207.852 396.506 209.392C396.506 210.484 396.898 211.576 397.458 212.78H395.218C394.574 211.464 394.238 210.148 394.238 208.972C394.238 206.592 395.778 204.912 398.438 204.912C402.218 204.912 403.87 207.628 404.934 212.584H408.042V214.572H405.158ZM51.924 248.572H42.824V253.976C43.608 253.276 44.728 252.8 46.1 252.8C48.76 252.8 50.328 254.508 50.328 257.28C50.328 259.24 49.628 261.004 47.976 262.824L46.016 261.592C47.248 260.332 48.088 258.96 48.088 257.252C48.088 255.628 47.276 254.76 45.848 254.76C44.672 254.76 43.524 255.572 42.824 256.832V264H40.556V259.24C39.548 260.136 38.204 260.696 36.524 260.696C33.668 260.696 31.288 259.072 31.288 255.852C31.288 252.8 33.416 251.008 37.056 251.008C38.008 251.008 38.876 251.12 39.576 251.288L39.38 253.332C38.736 253.164 37.952 253.052 37.112 253.052C34.816 253.052 33.556 254.06 33.556 255.936C33.556 257.784 34.844 258.68 36.524 258.68C38.232 258.68 39.716 257.728 40.556 256.524V248.572H30V246.584H51.924V248.572ZM56.2522 248.572V264H53.9842V248.572H51.4922V246.584H59.1362V248.572H56.2522ZM69.2943 262.824L67.6703 264.336C64.7303 261.676 62.6583 259.52 61.2023 257.448C60.2783 256.132 59.9143 255.236 59.9143 254.396C59.9143 253.528 60.4463 252.968 61.3983 252.968C62.2103 252.968 62.9663 253.444 63.6943 254.284C65.2343 253.556 65.9063 252.408 65.9063 250.896C65.9063 250.056 65.7103 249.132 65.4303 248.572H58.7383V246.584H70.6103V248.572H67.7543C68.0343 249.356 68.1463 250.168 68.1463 251.176C68.1463 254.2 66.2143 255.824 63.3303 257.056C64.8703 258.876 67.0823 260.948 69.2943 262.824ZM92.1193 248.572H83.0193V253.976C83.8033 253.276 84.9233 252.8 86.2953 252.8C88.9553 252.8 90.5233 254.508 90.5233 257.28C90.5233 259.24 89.8233 261.004 88.1713 262.824L86.2113 261.592C87.4433 260.332 88.2833 258.96 88.2833 257.252C88.2833 255.628 87.4713 254.76 86.0433 254.76C84.8673 254.76 83.7193 255.572 83.0193 256.832V264H80.7513V259.24C79.7433 260.136 78.3993 260.696 76.7193 260.696C73.8633 260.696 71.4833 259.072 71.4833 255.852C71.4833 252.8 73.6113 251.008 77.2513 251.008C78.2033 251.008 79.0713 251.12 79.7713 251.288L79.5753 253.332C78.9313 253.164 78.1473 253.052 77.3073 253.052C75.0113 253.052 73.7513 254.06 73.7513 255.936C73.7513 257.784 75.0393 258.68 76.7193 258.68C78.4273 258.68 79.9113 257.728 80.7513 256.524V248.572H70.1953V246.584H92.1193V248.572ZM96.4475 248.572V264H94.1795V248.572H91.6875V246.584H94.1515C92.6395 241.768 92.0795 240.956 90.2035 240.956C89.4195 240.956 88.5515 241.152 87.8795 241.404L87.2635 239.416C88.0475 239.108 89.1115 238.912 90.0635 238.912C93.3395 238.912 94.3475 240.508 96.2235 246.584H99.3315V248.572H96.4475ZM114.708 264.392C111.908 261.648 109.64 258.82 108.632 256.972C108.1 256.02 107.848 255.18 107.848 254.48C107.848 253.5 108.408 252.968 109.36 252.968C110.172 252.968 110.928 253.472 111.656 254.312C112.664 253.612 113 252.352 113 251.12C113 250.084 112.776 249.16 112.524 248.572H106.672V246.584H125.992V248.572H123.108V264H120.84V256.832C119.888 257.056 118.908 257.168 117.872 257.168C116.388 257.168 114.624 256.888 113.056 256.076C112.496 256.496 111.768 256.86 110.928 257.14C112.272 258.96 114.176 260.808 116.416 262.88L114.708 264.392ZM117.844 255.152C118.908 255.152 119.86 255.04 120.84 254.76V248.572H114.82C115.128 249.384 115.268 250.28 115.268 251.4C115.268 252.632 114.988 253.696 114.4 254.592C115.548 255.012 116.584 255.152 117.844 255.152ZM120.862 246.78C119.322 241.796 118.762 240.956 116.858 240.956C116.074 240.956 115.206 241.152 114.534 241.404L113.918 239.416C114.702 239.108 115.766 238.912 116.718 238.912C119.994 238.912 121.002 240.508 122.934 246.78H120.862ZM149.712 248.572H146.828V264H144.56V259.716C143.44 260.444 142.096 260.836 140.332 260.836C136.804 260.836 134.62 258.904 134.62 255.936C134.62 252.52 137.14 250.896 140.724 250.896C141.844 250.896 142.768 250.98 143.58 251.176L143.412 253.108C142.6 252.912 141.76 252.828 140.892 252.828C140.472 252.828 140.052 252.856 139.688 252.912L143.608 257.924C143.972 257.672 144.28 257.42 144.56 257.14V248.572H133.332V246.584H149.712V248.572ZM136.888 255.936C136.888 257.952 138.316 258.932 140.416 258.932C140.976 258.932 141.508 258.848 142.012 258.68L137.98 253.584C137.28 254.088 136.888 254.872 136.888 255.936ZM167.5 248.572H164.588V264H162.348V259.66C161.34 260.472 159.884 260.948 158.344 260.948C155.264 260.948 153.164 259.184 153.164 256.468C153.164 255.04 153.78 254.032 154.564 253.416L150.392 253.472V251.456H160.22L160.024 253.444H159.128C156.944 253.444 155.404 254.368 155.404 256.356C155.404 258.008 156.58 258.932 158.176 258.932C159.912 258.932 161.368 258.064 162.348 256.888V248.572H149.328V246.584H167.5V248.572ZM171.862 248.572V264H169.594V248.572H167.102V246.584H174.746V248.572H171.862ZM174.348 246.584H190.28V248.572H187.396V264H185.128V255.656H180.06V257.168C180.06 258.204 179.5 258.736 178.632 258.736C177.26 258.736 175.384 256.664 175.384 255.096C175.384 254.256 175.832 253.668 177.092 253.668H185.128V248.572H174.348V246.584ZM185.147 246.78C183.607 241.796 183.047 240.956 181.143 240.956C180.359 240.956 179.491 241.152 178.819 241.404L178.203 239.416C178.987 239.108 180.051 238.912 181.003 238.912C184.279 238.912 185.287 240.508 187.219 246.78H185.147ZM211.869 248.572V264H209.601V257H203.413V258.036C203.413 259.268 202.769 259.772 202.069 259.772C200.641 259.772 198.709 257.644 198.709 256.216C198.709 255.544 199.157 255.012 200.417 255.012H201.145V248.572H197.617V246.584H214.753V248.572H211.869ZM209.601 248.572H203.413V255.012H209.601V248.572ZM209.62 246.78C208.08 241.796 207.52 240.956 205.616 240.956C204.832 240.956 203.964 241.152 203.292 241.404L202.676 239.416C203.46 239.108 204.524 238.912 205.476 238.912C208.752 238.912 209.76 240.508 211.692 246.78H209.62ZM230.126 264.392C227.326 261.648 225.058 258.82 224.05 256.972C223.518 256.02 223.266 255.18 223.266 254.48C223.266 253.5 223.826 252.968 224.778 252.968C225.59 252.968 226.346 253.472 227.074 254.312C228.082 253.612 228.418 252.352 228.418 251.12C228.418 250.084 228.194 249.16 227.942 248.572H222.09V246.584H241.41V248.572H238.526V264H236.258V256.832C235.306 257.056 234.326 257.168 233.29 257.168C231.806 257.168 230.042 256.888 228.474 256.076C227.914 256.496 227.186 256.86 226.346 257.14C227.69 258.96 229.594 260.808 231.834 262.88L230.126 264.392ZM233.262 255.152C234.326 255.152 235.278 255.04 236.258 254.76V248.572H230.238C230.546 249.384 230.686 250.28 230.686 251.4C230.686 252.632 230.406 253.696 229.818 254.592C230.966 255.012 232.002 255.152 233.262 255.152ZM250.336 262.208C251.652 261.648 252.352 260.808 252.352 259.912C252.352 258.68 251.428 257.784 249.16 257.784C246.584 257.784 245.184 258.932 245.184 260.808C245.184 263.048 247.592 264.42 251.736 266.072L250.616 267.976C246.248 266.212 242.944 264.252 242.944 260.724C242.944 259.156 243.56 257.952 244.596 257.14C243.588 256.244 242.944 255.292 242.944 254.088C242.944 252.072 244.344 250.98 247.256 250.98H251.12V248.572H241.012V246.584H256.272V248.572H253.388V252.968H247.564C245.912 252.968 245.184 253.444 245.184 254.452C245.184 255.152 245.716 255.852 246.276 256.244C247.144 255.936 248.152 255.796 249.216 255.796C253.024 255.796 254.564 257.7 254.564 259.94C254.564 261.508 253.892 262.796 251.932 263.832L250.336 262.208ZM260.647 248.572V264H258.379V248.572H255.887V246.584H263.531V248.572H260.647ZM279.765 246.584V248.572H276.881V264H274.613V259.156C273.633 259.828 272.429 260.304 270.693 260.304C267.081 260.304 265.037 258.232 264.057 253.976C266.941 253.444 268.117 252.66 268.117 251.148C268.117 250.168 267.641 249.272 266.885 248.572H263.133V246.584H279.765ZM266.857 255.404C267.529 257.336 268.593 258.316 270.665 258.316C272.401 258.316 273.661 257.42 274.613 256.384V248.572H269.321C270.021 249.468 270.357 250.448 270.357 251.4C270.357 253.388 269.265 254.62 266.857 255.404ZM301.299 248.572H292.199V253.976C292.983 253.276 294.103 252.8 295.475 252.8C298.135 252.8 299.703 254.508 299.703 257.28C299.703 259.24 299.003 261.004 297.351 262.824L295.391 261.592C296.623 260.332 297.463 258.96 297.463 257.252C297.463 255.628 296.651 254.76 295.223 254.76C294.047 254.76 292.899 255.572 292.199 256.832V264H289.931V259.24C288.923 260.136 287.579 260.696 285.899 260.696C283.043 260.696 280.663 259.072 280.663 255.852C280.663 252.8 282.791 251.008 286.431 251.008C287.383 251.008 288.251 251.12 288.951 251.288L288.755 253.332C288.111 253.164 287.327 253.052 286.487 253.052C284.191 253.052 282.931 254.06 282.931 255.936C282.931 257.784 284.219 258.68 285.899 258.68C287.607 258.68 289.091 257.728 289.931 256.524V248.572H279.375V246.584H301.299V248.572ZM317.929 262.208C319.245 261.648 319.945 260.808 319.945 259.912C319.945 258.68 319.021 257.784 316.753 257.784C314.177 257.784 312.777 258.932 312.777 260.808C312.777 263.048 315.185 264.42 319.329 266.072L318.209 267.976C313.841 266.212 310.537 264.252 310.537 260.724C310.537 259.156 311.153 257.952 312.189 257.14C311.181 256.244 310.537 255.292 310.537 254.088C310.537 252.072 311.937 250.98 314.849 250.98H318.713V248.572H308.605V246.584H323.865V248.572H320.981V252.968H315.157C313.505 252.968 312.777 253.444 312.777 254.452C312.777 255.152 313.309 255.852 313.869 256.244C314.737 255.936 315.745 255.796 316.809 255.796C320.617 255.796 322.157 257.7 322.157 259.94C322.157 261.508 321.485 262.796 319.525 263.832L317.929 262.208ZM328.24 248.572V264H325.972V248.572H323.48V246.584H325.944C324.432 241.768 323.872 240.956 321.996 240.956C321.212 240.956 320.344 241.152 319.672 241.404L319.056 239.416C319.84 239.108 320.904 238.912 321.856 238.912C325.132 238.912 326.14 240.508 328.016 246.584H331.124V248.572H328.24ZM346.501 264.392C343.701 261.648 341.433 258.82 340.425 256.972C339.893 256.02 339.641 255.18 339.641 254.48C339.641 253.5 340.201 252.968 341.153 252.968C341.965 252.968 342.721 253.472 343.449 254.312C344.457 253.612 344.793 252.352 344.793 251.12C344.793 250.084 344.569 249.16 344.317 248.572H338.465V246.584H357.785V248.572H354.901V264H352.633V256.832C351.681 257.056 350.701 257.168 349.665 257.168C348.181 257.168 346.417 256.888 344.849 256.076C344.289 256.496 343.561 256.86 342.721 257.14C344.065 258.96 345.969 260.808 348.209 262.88L346.501 264.392ZM349.637 255.152C350.701 255.152 351.653 255.04 352.633 254.76V248.572H346.613C346.921 249.384 347.061 250.28 347.061 251.4C347.061 252.632 346.781 253.696 346.193 254.592C347.341 255.012 348.377 255.152 349.637 255.152ZM379.311 248.572H370.211V253.976C370.995 253.276 372.115 252.8 373.487 252.8C376.147 252.8 377.715 254.508 377.715 257.28C377.715 259.24 377.015 261.004 375.363 262.824L373.403 261.592C374.635 260.332 375.475 258.96 375.475 257.252C375.475 255.628 374.663 254.76 373.235 254.76C372.059 254.76 370.911 255.572 370.211 256.832V264H367.943V259.24C366.935 260.136 365.591 260.696 363.911 260.696C361.055 260.696 358.675 259.072 358.675 255.852C358.675 252.8 360.803 251.008 364.443 251.008C365.395 251.008 366.263 251.12 366.963 251.288L366.767 253.332C366.123 253.164 365.339 253.052 364.499 253.052C362.203 253.052 360.943 254.06 360.943 255.936C360.943 257.784 362.231 258.68 363.911 258.68C365.619 258.68 367.103 257.728 367.943 256.524V248.572H357.387V246.584H379.311V248.572ZM367.967 246.78C366.427 241.796 365.867 240.956 363.963 240.956C363.179 240.956 362.311 241.152 361.639 241.404L361.023 239.416C361.807 239.108 362.871 238.912 363.823 238.912C367.099 238.912 368.107 240.508 370.039 246.78H367.967ZM381.609 264V246.962H384.269V264H381.609Z" fill="white"/>
</svg>
